<svg width="24" height="24" viewBox="0 0 24 24" fill="none" xmlns="http://www.w3.org/2000/svg">
<path fill-rule="evenodd" clip-rule="evenodd" d="M13 6.99995C13 6.44769 12.5523 6 12 6H7.00024C6.44796 6 6.00024 6.44772 6.00024 7C6.00024 7.55229 6.44796 8 7.00024 8L9.58587 8L7.00021 10.5858L2.70709 6.29288C2.31656 5.90236 1.68339 5.90238 1.29288 6.29291C0.902361 6.68345 0.902377 7.31661 1.29291 7.70712L6.29315 12.7071C6.4807 12.8947 6.73505 13 7.00027 13C7.26549 13 7.51984 12.8946 7.70737 12.7071L11.0001 9.41418L11.0002 12C11.0003 12.5523 11.448 13 12.0003 13C12.5526 13 13.0003 12.5522 13.0002 12L13 6.99995ZM21 13C21.2652 13 21.5196 12.8946 21.7071 12.7071C21.8946 12.5196 22 12.2652 22 12L22 7C22 6.44771 21.5523 6 21 6C20.4477 6 20 6.44772 20 7L20 9.58579L16.7071 6.29289C16.3166 5.90237 15.6834 5.90237 15.2929 6.29289C14.9024 6.68342 14.9024 7.31658 15.2929 7.70711L18.5858 11L16 11C15.4477 11 15 11.4477 15 12C15 12.5523 15.4477 13 16 13L21 13ZM2 15H12V17H2C1.44771 17 1 16.5523 1 16C1 15.4477 1.44771 15 2 15ZM20 15H19V17H20V15ZM21 15H22V17H21V15ZM18 15H17V17H18V15ZM15 15H16V17H15V15ZM14 15H13V17H14V15Z" fill="#fff"/>
</svg>
