<svg width="24" height="24" viewBox="0 0 24 24" fill="none" xmlns="http://www.w3.org/2000/svg">
<path d="M18.6357 13.8308C19.062 13.4797 19.123 12.8494 18.7719 12.4231C18.4208 11.9968 17.7906 11.9358 17.3643 12.2869L18.6357 13.8308ZM12 18L11.3643 18.7719C11.7335 19.076 12.2665 19.076 12.6357 18.7719L12 18ZM6.63571 12.2869C6.20938 11.9358 5.57916 11.9968 5.22807 12.4231C4.87698 12.8494 4.93797 13.4797 5.36429 13.8308L6.63571 12.2869ZM13 6C13 5.44772 12.5523 5 12 5C11.4477 5 11 5.44772 11 6L13 6ZM17.3643 12.2869L11.3643 17.2281L12.6357 18.7719L18.6357 13.8308L17.3643 12.2869ZM12.6357 17.2281L6.63571 12.2869L5.36429 13.8308L11.3643 18.7719L12.6357 17.2281ZM13 18L13 6L11 6L11 18L13 18Z" fill="black"/>
</svg>
