<svg width="24" height="24" viewBox="0 0 24 24" fill="none" xmlns="http://www.w3.org/2000/svg">
<path fill-rule="evenodd" clip-rule="evenodd" d="M4.5 4.99976C5.88071 4.99976 7 6.11904 7 7.49976C7 8.04063 6.82824 8.54139 6.53628 8.95046L7.86392 11.1634C8.22405 11.0569 8.60535 10.9998 9 10.9998C11.2091 10.9998 13 12.7906 13 14.9998C13 15.0446 12.9993 15.0892 12.9978 15.1336L15.5838 15.8942C16.0424 15.3475 16.7306 15 17.5 15C18.8807 15 20 16.1193 20 17.5C20 18.8807 18.8807 20 17.5 20C16.2253 20 15.1734 19.0459 15.0194 17.8129L12.4338 17.0525C11.735 18.2189 10.4587 18.9998 9 18.9998C6.79086 18.9998 5 17.2089 5 14.9998C5 13.9064 5.43866 12.9155 6.14959 12.1935L4.82121 9.97931C4.71604 9.9928 4.60883 9.99976 4.5 9.99976C3.11929 9.99976 2 8.88047 2 7.49976C2 6.11904 3.11929 4.99976 4.5 4.99976Z" fill="black"/>
<path fill-rule="evenodd" clip-rule="evenodd" d="M18.9998 2.88892C18.9998 2.33663 18.5521 1.88892 17.9998 1.88892C17.4475 1.88892 16.9998 2.33663 16.9998 2.88892V5.00003H14.8887C14.3364 5.00003 13.8887 5.44774 13.8887 6.00003C13.8887 6.55231 14.3364 7.00003 14.8887 7.00003H16.9998V9.11114C16.9998 9.66342 17.4475 10.1111 17.9998 10.1111C18.5521 10.1111 18.9998 9.66342 18.9998 9.11114V7.00003H21.1109C21.6632 7.00003 22.1109 6.55231 22.1109 6.00003C22.1109 5.44774 21.6632 5.00003 21.1109 5.00003H18.9998V2.88892Z" fill="#171A1C"/>
</svg>
