<svg width="24" height="24" viewBox="0 0 24 24" fill="none" xmlns="http://www.w3.org/2000/svg">
<path fill-rule="evenodd" clip-rule="evenodd" d="M12.7071 2.29289C12.3166 1.90237 11.6834 1.90237 11.2929 2.29289L8.2929 5.29289C7.90237 5.68342 7.90237 6.31658 8.2929 6.70711C8.68342 7.09763 9.31659 7.09763 9.70711 6.70711L11 5.41421V8.5C11 9.05228 11.4477 9.5 12 9.5C12.5523 9.5 13 9.05228 13 8.5V5.41421L14.2929 6.70711C14.6834 7.09763 15.3166 7.09763 15.7071 6.70711C16.0976 6.31658 16.0976 5.68342 15.7071 5.29289L12.7071 2.29289ZM4.33817 14.1688C4.15626 14.2812 3.98877 14.4464 3.73676 14.721C3.36333 15.1279 2.73075 15.155 2.32385 14.7816C1.91695 14.4081 1.88982 13.7756 2.26325 13.3687C2.51124 13.0984 2.84375 12.7412 3.28684 12.4674C3.75779 12.1764 4.3149 12 5.00001 12C6.17245 12 6.94117 12.7737 7.39376 13.2293L7.45711 13.2929C8.01445 13.8502 8.22906 14 8.50001 14C8.78076 14 9.01666 13.8375 9.5881 13.2826L9.6616 13.2108C10.1199 12.7621 10.8981 12 12.0397 12C13.1929 12 13.9538 12.7752 14.3956 13.2253L14.4656 13.2964C15.0142 13.8506 15.2304 14 15.5 14C15.771 14 15.9856 13.8502 16.5429 13.2929L16.6062 13.2293C17.0588 12.7737 17.8276 12 19 12C19.6851 12 20.2422 12.1764 20.7132 12.4674C21.1563 12.7412 21.4888 13.0984 21.7368 13.3687C22.1102 13.7756 22.0831 14.4081 21.6762 14.7816C21.2693 15.155 20.6367 15.1279 20.2632 14.721C20.0112 14.4464 19.8438 14.2812 19.6618 14.1688C19.5078 14.0736 19.3149 14 19 14C18.7291 14 18.5145 14.1498 17.9571 14.7071L17.8938 14.7707C17.4412 15.2263 16.6725 16 15.5 16C14.3212 16 13.5522 15.2192 13.1016 14.7616L13.0443 14.7036C12.4835 14.1371 12.2834 14 12.0397 14C11.7846 14 11.5649 14.1508 10.9814 14.7174L10.9211 14.7762C10.454 15.2322 9.66743 16 8.50001 16C7.32756 16 6.55884 15.2263 6.10625 14.7707L6.0429 14.7071C5.48556 14.1498 5.27096 14 5.00001 14C4.68511 14 4.49222 14.0736 4.33817 14.1688ZM4.33817 19.1688C4.15626 19.2812 3.98877 19.4464 3.73676 19.721C3.36333 20.1279 2.73075 20.155 2.32385 19.7816C1.91695 19.4081 1.88982 18.7756 2.26325 18.3687C2.51124 18.0984 2.84375 17.7412 3.28684 17.4674C3.75779 17.1764 4.3149 17 5.00001 17C6.17245 17 6.94117 17.7737 7.39376 18.2293L7.45711 18.2929C8.01445 18.8502 8.22906 19 8.50001 19C8.78076 19 9.01666 18.8375 9.5881 18.2826L9.6616 18.2108C10.1199 17.7621 10.8981 17 12.0397 17C13.1929 17 13.9538 17.7752 14.3956 18.2253L14.4656 18.2964C15.0142 18.8506 15.2304 19 15.5 19C15.771 19 15.9856 18.8502 16.5429 18.2929L16.6062 18.2293C17.0588 17.7737 17.8276 17 19 17C19.6851 17 20.2422 17.1764 20.7132 17.4674C21.1563 17.7412 21.4888 18.0984 21.7368 18.3687C22.1102 18.7756 22.0831 19.4081 21.6762 19.7816C21.2693 20.155 20.6367 20.1279 20.2632 19.721C20.0112 19.4464 19.8438 19.2812 19.6618 19.1688C19.5078 19.0736 19.3149 19 19 19C18.7291 19 18.5145 19.1498 17.9571 19.7071L17.8938 19.7707C17.4412 20.2263 16.6725 21 15.5 21C14.3212 21 13.5522 20.2192 13.1016 19.7616L13.0443 19.7036C12.4835 19.1371 12.2834 19 12.0397 19C11.7846 19 11.5649 19.1508 10.9814 19.7174L10.9211 19.7762C10.454 20.2322 9.66743 21 8.50001 21C7.32756 21 6.55884 20.2263 6.10625 19.7707L6.0429 19.7071C5.48556 19.1498 5.27096 19 5.00001 19C4.68511 19 4.49222 19.0736 4.33817 19.1688Z" fill="#171A1C"/>
</svg>
