<svg width="24" height="24" viewBox="0 0 24 24" fill="none" xmlns="http://www.w3.org/2000/svg">
<path fill-rule="evenodd" clip-rule="evenodd" d="M17.9998 1.88892C18.5521 1.88892 18.9998 2.33663 18.9998 2.88892V5.00003H21.1109C21.6632 5.00003 22.1109 5.44774 22.1109 6.00003C22.1109 6.55231 21.6632 7.00003 21.1109 7.00003H18.9998V9.11114C18.9998 9.66342 18.5521 10.1111 17.9998 10.1111C17.4475 10.1111 16.9998 9.66342 16.9998 9.11114V7.00003H14.8887C14.3364 7.00003 13.8887 6.55231 13.8887 6.00003C13.8887 5.44774 14.3364 5.00003 14.8887 5.00003H16.9998V2.88892C16.9998 2.33663 17.4475 1.88892 17.9998 1.88892ZM8 22C10.7614 22 13 19.868 13 17.2381C13 15.6804 12.2146 14.2974 11.0004 13.4286L11 5.00009C11 0.999965 5 0.999985 5 5.00006L4.99956 13.4286C3.78536 14.2974 3 15.6804 3 17.2381C3 19.868 5.23858 22 8 22ZM7 4.99999C7 4.4477 7.44772 3.99999 8 3.99999C8.55228 3.99999 9 4.4477 9 4.99999V8.99999H7V4.99999Z" fill="#171A1C"/>
</svg>
