<svg xmlns="http://www.w3.org/2000/svg" xmlns:xlink="http://www.w3.org/1999/xlink" viewBox="0 0 259.02 259.02"><defs><style>.cls-1{fill:url(#Unbenannter_Verlauf_14);}.cls-2{fill:url(#Unbenannter_Verlauf_13);}.cls-3{fill:url(#Unbenannter_Verlauf_3);}.cls-4{fill:url(#Unbenannter_Verlauf_4);}.cls-5{fill:url(#Unbenannter_Verlauf_5);}.cls-6{fill:url(#Unbenannter_Verlauf_6);}.cls-7{fill:url(#Unbenannter_Verlauf_7);}.cls-8{fill:url(#Unbenannter_Verlauf_8);}.cls-9{fill:url(#Unbenannter_Verlauf_9);}.cls-10{fill:url(#Unbenannter_Verlauf_10);}.cls-11{fill:url(#Unbenannter_Verlauf_11);}.cls-12{fill:url(#Unbenannter_Verlauf_12);}.cls-13{fill:none;}</style><linearGradient id="Unbenannter_Verlauf_14" x1="1.03" y1="257" x2="0.94" y2="256.92" gradientTransform="matrix(2206.73, 0, 0, -2278.69, -2044.79, 585674.52)" gradientUnits="userSpaceOnUse"><stop offset="0.05" stop-color="#fff44f"/><stop offset="0.11" stop-color="#ffe847"/><stop offset="0.23" stop-color="#ffc830"/><stop offset="0.37" stop-color="#ff980e"/><stop offset="0.4" stop-color="#ff8b16"/><stop offset="0.46" stop-color="#ff672a"/><stop offset="0.53" stop-color="#ff3647"/><stop offset="0.7" stop-color="#e31587"/></linearGradient><radialGradient id="Unbenannter_Verlauf_13" cx="3" cy="257.71" r="8.86" gradientTransform="matrix(28.5, 0, 0, -28.5, 133.44, 7376.13)" gradientUnits="userSpaceOnUse"><stop offset="0.13" stop-color="#ffbd4f"/><stop offset="0.19" stop-color="#ffac31"/><stop offset="0.25" stop-color="#ff9d17"/><stop offset="0.28" stop-color="#ff980e"/><stop offset="0.4" stop-color="#ff563b"/><stop offset="0.47" stop-color="#ff3750"/><stop offset="0.71" stop-color="#f5156c"/><stop offset="0.78" stop-color="#eb0878"/><stop offset="0.86" stop-color="#e50080"/></radialGradient><radialGradient id="Unbenannter_Verlauf_3" cx="-0.24" cy="254.08" r="8.86" gradientTransform="matrix(28.5, 0, 0, -28.5, 133.44, 7376.13)" gradientUnits="userSpaceOnUse"><stop offset="0.3" stop-color="#960e18"/><stop offset="0.35" stop-color="#b11927" stop-opacity="0.74"/><stop offset="0.43" stop-color="#db293d" stop-opacity="0.34"/><stop offset="0.5" stop-color="#f5334b" stop-opacity="0.09"/><stop offset="0.53" stop-color="#ff3750" stop-opacity="0"/></radialGradient><radialGradient id="Unbenannter_Verlauf_4" cx="0.83" cy="259.72" r="6.42" gradientTransform="matrix(28.5, 0, 0, -28.5, 133.44, 7376.13)" gradientUnits="userSpaceOnUse"><stop offset="0.13" stop-color="#fff44f"/><stop offset="0.25" stop-color="#ffdc3e"/><stop offset="0.51" stop-color="#ff9d12"/><stop offset="0.53" stop-color="#ff980e"/></radialGradient><radialGradient id="Unbenannter_Verlauf_5" cx="-1.22" cy="251.77" r="4.22" gradientTransform="matrix(28.5, 0, 0, -28.5, 133.44, 7376.13)" gradientUnits="userSpaceOnUse"><stop offset="0.35" stop-color="#3a8ee6"/><stop offset="0.47" stop-color="#5c79f0"/><stop offset="0.67" stop-color="#9059ff"/><stop offset="1" stop-color="#c139e6"/></radialGradient><radialGradient id="Unbenannter_Verlauf_6" cx="-7969.08" cy="8784.75" r="2.24" gradientTransform="matrix(27.7, -6.7, -7.84, -32.44, 289777.36, 231677.59)" gradientUnits="userSpaceOnUse"><stop offset="0.21" stop-color="#9059ff" stop-opacity="0"/><stop offset="0.28" stop-color="#8c4ff3" stop-opacity="0.06"/><stop offset="0.75" stop-color="#7716a8" stop-opacity="0.45"/><stop offset="0.97" stop-color="#6e008b" stop-opacity="0.6"/></radialGradient><radialGradient id="Unbenannter_Verlauf_7" cx="-0.35" cy="258.07" r="3.04" gradientTransform="matrix(28.5, 0, 0, -28.5, 133.44, 7376.13)" gradientUnits="userSpaceOnUse"><stop offset="0" stop-color="#ffe226"/><stop offset="0.12" stop-color="#ffdb27"/><stop offset="0.29" stop-color="#ffc82a"/><stop offset="0.5" stop-color="#ffa930"/><stop offset="0.73" stop-color="#ff7e37"/><stop offset="0.79" stop-color="#ff7139"/></radialGradient><radialGradient id="Unbenannter_Verlauf_8" cx="2.04" cy="260" r="12.95" gradientTransform="matrix(28.5, 0, 0, -28.5, 133.44, 7376.13)" gradientUnits="userSpaceOnUse"><stop offset="0.11" stop-color="#fff44f"/><stop offset="0.46" stop-color="#ff980e"/><stop offset="0.62" stop-color="#ff5634"/><stop offset="0.72" stop-color="#ff3647"/><stop offset="0.9" stop-color="#e31587"/></radialGradient><radialGradient id="Unbenannter_Verlauf_9" cx="-7928.2" cy="8704.96" r="9.49" gradientTransform="matrix(2.99, 28.36, 18.61, -1.97, -138130.85, 241950.81)" gradientUnits="userSpaceOnUse"><stop offset="0" stop-color="#fff44f"/><stop offset="0.06" stop-color="#ffe847"/><stop offset="0.17" stop-color="#ffc830"/><stop offset="0.3" stop-color="#ff980e"/><stop offset="0.36" stop-color="#ff8b16"/><stop offset="0.46" stop-color="#ff672a"/><stop offset="0.57" stop-color="#ff3647"/><stop offset="0.74" stop-color="#e31587"/></radialGradient><radialGradient id="Unbenannter_Verlauf_10" cx="-0.42" cy="256.95" r="8.09" gradientTransform="matrix(28.5, 0, 0, -28.5, 133.44, 7376.13)" gradientUnits="userSpaceOnUse"><stop offset="0.14" stop-color="#fff44f"/><stop offset="0.48" stop-color="#ff980e"/><stop offset="0.59" stop-color="#ff5634"/><stop offset="0.66" stop-color="#ff3647"/><stop offset="0.9" stop-color="#e31587"/></radialGradient><radialGradient id="Unbenannter_Verlauf_11" cx="1.72" cy="256.47" r="8.85" gradientTransform="matrix(28.5, 0, 0, -28.5, 133.44, 7376.13)" gradientUnits="userSpaceOnUse"><stop offset="0.09" stop-color="#fff44f"/><stop offset="0.23" stop-color="#ffe141"/><stop offset="0.51" stop-color="#ffaf1e"/><stop offset="0.63" stop-color="#ff980e"/></radialGradient><linearGradient id="Unbenannter_Verlauf_12" x1="1.03" y1="257" x2="0.95" y2="256.93" gradientTransform="matrix(2206.73, 0, 0, -2278.69, -2045.36, 585674.69)" gradientUnits="userSpaceOnUse"><stop offset="0.17" stop-color="#fff44f" stop-opacity="0.8"/><stop offset="0.27" stop-color="#fff44f" stop-opacity="0.63"/><stop offset="0.49" stop-color="#fff44f" stop-opacity="0.22"/><stop offset="0.6" stop-color="#fff44f" stop-opacity="0"/></linearGradient></defs><g id="Ebene_2" data-name="Ebene 2"><g id="Ebene_1-2" data-name="Ebene 1"><path class="cls-1" d="M240.32,86.93C235,74.23,224.37,60.57,216,56.28A125.68,125.68,0,0,1,228.28,93v.22c-13.66-34.18-36.9-47.94-55.88-78-1-1.5-1.94-3-2.88-4.63-.53-.94-.93-1.75-1.34-2.5a21.9,21.9,0,0,1-1.81-4.82.32.32,0,0,0-.25-.31.44.44,0,0,0-.32,0v.06c0,.06-.09,0-.09,0V3C135.31,20.85,125,53.88,124,70.35A60.7,60.7,0,0,0,90.66,83.24a36.31,36.31,0,0,0-3.13-2.38,56.31,56.31,0,0,1-.31-29.71A89.86,89.86,0,0,0,58,73.73c-4.84-6.06-4.5-26.14-4.22-30.33a21.22,21.22,0,0,0-4.06,2.13A88.61,88.61,0,0,0,37.84,55.69a105.38,105.38,0,0,0-11.25,13.6A102.38,102.38,0,0,0,10.32,106l-.21.85c-.22,1-1.07,6.38-1.19,7.5v.32A115.62,115.62,0,0,0,7,131.36V132A121.21,121.21,0,0,0,247.61,152.5c.22-1.56.37-3.12.56-4.69a124.63,124.63,0,0,0-7.82-60.88ZM100.64,181.77a12.93,12.93,0,0,0,1.65.85l.1.06c-.57-.29-1.14-.6-1.72-.94ZM228.31,93.21v0Z"/><path class="cls-2" d="M240.32,86.93C235,74.23,224.37,60.57,216,56.28A125.68,125.68,0,0,1,228.28,93v.25a109.73,109.73,0,0,1-3.75,81.8c-13.88,29.8-47.53,60.35-100.16,58.85C67.52,232.37,17.42,190.15,8,134.87c-1.69-8.76,0-13.14.88-20.24A89.45,89.45,0,0,0,7,131.33V132a121.21,121.21,0,0,0,240.63,20.51c.22-1.56.37-3.12.56-4.69a124.63,124.63,0,0,0-7.82-60.88Z"/><path class="cls-3" d="M240.32,86.93C235,74.23,224.37,60.57,216,56.28A125.68,125.68,0,0,1,228.28,93v.25a109.73,109.73,0,0,1-3.75,81.8c-13.88,29.8-47.53,60.35-100.16,58.85C67.52,232.37,17.42,190.15,8,134.87c-1.69-8.76,0-13.14.88-20.24A89.45,89.45,0,0,0,7,131.33V132a121.21,121.21,0,0,0,240.63,20.51c.22-1.56.37-3.12.56-4.69a124.63,124.63,0,0,0-7.82-60.88Z"/><path class="cls-4" d="M181.41,101.16a6.65,6.65,0,0,1,.75.56A66.24,66.24,0,0,0,170.9,87c-37.65-37.65-9.85-81.68-5.16-83.9V3C135.35,20.85,125,53.88,124.06,70.35c1.4-.09,2.81-.18,4.25-.18a61.17,61.17,0,0,1,53.1,31Z"/><path class="cls-5" d="M128.4,108.72c-.22,3-10.85,13.39-14.6,13.39-34.46,0-40,20.82-40,20.82,1.5,17.58,13.76,32,28.52,39.72l2.07.94c1.18.52,2.37,1,3.56,1.47a54,54,0,0,0,15.76,3.06c60.42,2.82,72.11-72.23,28.52-94a41.89,41.89,0,0,1,29.21,7.13,61.17,61.17,0,0,0-53.1-31c-1.44,0-2.81.06-4.25.16A60.64,60.64,0,0,0,90.69,83.3c1.88,1.56,3.94,3.63,8.35,8,8.22,8.13,29.3,16.47,29.39,17.51Z"/><path class="cls-6" d="M128.4,108.72c-.22,3-10.85,13.39-14.6,13.39-34.46,0-40,20.82-40,20.82,1.5,17.58,13.76,32,28.52,39.72l2.07.94c1.18.52,2.37,1,3.56,1.47a54,54,0,0,0,15.76,3.06c60.42,2.82,72.11-72.23,28.52-94a41.89,41.89,0,0,1,29.21,7.13,61.17,61.17,0,0,0-53.1-31c-1.44,0-2.81.06-4.25.16A60.64,60.64,0,0,0,90.69,83.3c1.88,1.56,3.94,3.63,8.35,8,8.22,8.13,29.3,16.47,29.39,17.51Z"/><path class="cls-7" d="M85.06,79.2c.94.63,1.78,1.16,2.5,1.66a56.31,56.31,0,0,1-.31-29.71A90,90,0,0,0,58,73.73c.63,0,18.14-.31,27,5.44Z"/><path class="cls-8" d="M8.07,134.87c9.38,55.25,59.42,97.47,116.33,99.06,52.63,1.5,86.25-29.08,100.13-58.85a109.73,109.73,0,0,0,3.75-81.8V93l.07.22c4.25,28.08-10,55.25-32.34,73.64l-.09.15c-43.47,35.43-85.06,21.39-93.5,15.64a17.34,17.34,0,0,1-1.78-.88c-25.33-12.1-35.84-35.21-33.59-55a31.14,31.14,0,0,1-28.71-18,45.72,45.72,0,0,1,44.56-1.78,60.29,60.29,0,0,0,45.47,1.78c-.06-1-21.14-9.38-29.39-17.51-4.38-4.31-6.44-6.38-8.32-7.94a36.31,36.31,0,0,0-3.13-2.38c-.72-.5-1.5-1-2.5-1.65-8.82-5.76-26.39-5.45-27-5.45H58c-4.78-6.06-4.47-26.14-4.19-30.33a21.22,21.22,0,0,0-4.06,2.13A88.21,88.21,0,0,0,37.84,55.78,106.69,106.69,0,0,0,26.49,69.35a102.4,102.4,0,0,0-16.26,36.72c-.06.25-4.38,19.07-2.25,28.83Z"/><path class="cls-9" d="M170.93,87a65.94,65.94,0,0,1,11.26,14.7c.62.53,1.25,1,1.81,1.5,27.52,25.33,13.14,61.14,12,63.7,22.3-18.39,36.59-45.56,32.31-73.64-13.76-34.18-37-47.94-56-78-.94-1.5-1.88-3-2.81-4.63-.54-.94-.94-1.75-1.35-2.5a22.23,22.23,0,0,1-1.84-4.85.32.32,0,0,0-.25-.31.44.44,0,0,0-.32,0v.06c0,.06-.09,0-.09,0C161,5.34,133.19,49.37,170.9,87Z"/><path class="cls-10" d="M184,103.22c-.53-.5-1.16-1-1.81-1.5l-.75-.56a41.85,41.85,0,0,0-29.24-7.1c43.59,21.83,31.9,96.94-28.52,94.06a53.81,53.81,0,0,1-15.73-3c-1.19-.42-2.38-.9-3.56-1.44l-2-.94h.1c8.44,5.75,50,19.83,93.56-15.63L196,167c1.1-2.5,15.48-38.37-12-63.67Z"/><path class="cls-11" d="M73.74,142.93s5.63-20.82,40-20.82c3.75,0,14.38-10.42,14.63-13.45a60.34,60.34,0,0,1-45.53-1.75,45.72,45.72,0,0,0-44.56,1.78,31.1,31.1,0,0,0,28.77,18c-2.28,19.83,8.19,42.94,33.56,55,.56.31,1.09.56,1.65.85-14.79-7.67-27-22.11-28.55-39.72Z"/><path class="cls-12" d="M240.32,86.93C235,74.23,224.37,60.57,216,56.28A125.68,125.68,0,0,1,228.28,93v.22c-13.66-34.18-36.9-47.94-55.88-78-1-1.5-1.94-3-2.88-4.63-.53-.94-.93-1.75-1.34-2.5a21.9,21.9,0,0,1-1.81-4.82.32.32,0,0,0-.25-.31.44.44,0,0,0-.32,0v.06c0,.06-.09,0-.09,0V3C135.31,20.85,125,53.88,124,70.35c1.4-.09,2.81-.18,4.25-.18a61.18,61.18,0,0,1,53.1,31,41.83,41.83,0,0,0-29.21-7.07c43.59,21.83,31.9,96.94-28.52,94.06a54,54,0,0,1-15.76-3c-1.19-.42-2.38-.9-3.56-1.44l-2.07-.94h.09q-.84-.41-1.71-.87a14.26,14.26,0,0,0,1.65.84C87.5,175,75.27,160.57,73.74,143c0,0,5.63-20.8,40-20.8,3.75,0,14.38-10.41,14.63-13.45-.06-.93-21.14-9.38-29.39-17.44-4.38-4.38-6.47-6.42-8.32-8a36.31,36.31,0,0,0-3.13-2.38,56.27,56.27,0,0,1-.31-29.7A89.94,89.94,0,0,0,58,73.79c-4.84-6.06-4.5-26.14-4.22-30.33a22.12,22.12,0,0,0-4.06,2.13A88.61,88.61,0,0,0,37.87,55.75a105.38,105.38,0,0,0-11.25,13.6,102.4,102.4,0,0,0-16.26,36.72l-.25.78c-.22,1-1.25,6.47-1.41,7.63a140.61,140.61,0,0,0-1.78,16.88V132A121.21,121.21,0,0,0,247.55,152.5c.21-1.56.37-3.12.56-4.69a124.63,124.63,0,0,0-7.82-60.88Zm-12,6.25v0Z"/><rect class="cls-13" width="259.02" height="259.02"/></g></g></svg>