<svg xmlns="http://www.w3.org/2000/svg" xmlns:xlink="http://www.w3.org/1999/xlink" viewBox="0 0 259.02 259.02"><defs><style>.cls-1{fill:url(#Unbenannter_Verlauf_20);}.cls-2{opacity:0.35;fill:url(#Unbenannter_Verlauf_19);}.cls-2,.cls-4{isolation:isolate;}.cls-3{fill:url(#Unbenannter_Verlauf_18);}.cls-4{opacity:0.41;fill:url(#Unbenannter_Verlauf_17);}.cls-5{fill:url(#Unbenannter_Verlauf_16);}.cls-6{fill:url(#Unbenannter_Verlauf_15);}.cls-7{fill:none;}</style><linearGradient id="Unbenannter_Verlauf_20" x1="0.95" y1="10.77" x2="21.28" y2="10.77" gradientTransform="translate(52.25 83.63) scale(8.56)" gradientUnits="userSpaceOnUse"><stop offset="0" stop-color="#0c59a4"/><stop offset="1" stop-color="#114a8b"/></linearGradient><radialGradient id="Unbenannter_Verlauf_19" cx="12.18" cy="16.04" r="10.88" gradientTransform="translate(52.25 46.73) scale(8.56 8.13)" gradientUnits="userSpaceOnUse"><stop offset="0.72" stop-opacity="0"/><stop offset="0.95" stop-opacity="0.53"/><stop offset="1"/></radialGradient><linearGradient id="Unbenannter_Verlauf_18" x1="11.67" y1="1.96" x2="-1.03" y2="15.79" gradientTransform="translate(52.25 83.63) scale(8.56)" gradientUnits="userSpaceOnUse"><stop offset="0" stop-color="#1b9de2"/><stop offset="0.16" stop-color="#1595df"/><stop offset="0.67" stop-color="#0680d7"/><stop offset="1" stop-color="#0078d4"/></linearGradient><radialGradient id="Unbenannter_Verlauf_17" cx="-170.83" cy="70.04" r="16.33" gradientTransform="matrix(1.28, -8.48, 6.85, 1.03, -188.46, -1322.83)" gradientUnits="userSpaceOnUse"><stop offset="0.76" stop-opacity="0"/><stop offset="0.95" stop-opacity="0.5"/><stop offset="1"/></radialGradient><radialGradient id="Unbenannter_Verlauf_16" cx="68.41" cy="-296.26" r="23.08" gradientTransform="matrix(-0.34, 8.56, -18.24, -0.69, -5351.76, -739.52)" gradientUnits="userSpaceOnUse"><stop offset="0" stop-color="#35c1f1"/><stop offset="0.11" stop-color="#34c1ed"/><stop offset="0.23" stop-color="#2fc2df"/><stop offset="0.31" stop-color="#2bc3d2"/><stop offset="0.67" stop-color="#36c752"/></radialGradient><radialGradient id="Unbenannter_Verlauf_15" cx="243.25" cy="-71.92" r="11.1" gradientTransform="matrix(2.4, 8.22, -6.68, 1.97, -826.14, -1779.41)" gradientUnits="userSpaceOnUse"><stop offset="0" stop-color="#66eb6e"/><stop offset="1" stop-color="#66eb6e" stop-opacity="0"/></radialGradient></defs><g id="Ebene_2" data-name="Ebene 2"><g id="Ebene_1-2" data-name="Ebene 1"><path class="cls-1" d="M228.63,189a92.77,92.77,0,0,1-10.29,4.6,99.45,99.45,0,0,1-35.06,6.3c-46.2,0-86.44-31.78-86.44-72.56a30.73,30.73,0,0,1,16-26.67C71.09,102.47,60.35,146,60.35,171.53c0,72.14,66.48,79.45,80.8,79.45,7.73,0,19.37-2.25,26.37-4.45l1.27-.43a125.29,125.29,0,0,0,65-51.56,3.9,3.9,0,0,0-5.19-5.5Z"/><path class="cls-2" d="M228.63,189a92.77,92.77,0,0,1-10.29,4.6,99.45,99.45,0,0,1-35.06,6.3c-46.2,0-86.44-31.78-86.44-72.56a30.73,30.73,0,0,1,16-26.67C71.09,102.47,60.35,146,60.35,171.53c0,72.14,66.48,79.45,80.8,79.45,7.73,0,19.37-2.25,26.37-4.45l1.27-.43a125.29,125.29,0,0,0,65-51.56,3.9,3.9,0,0,0-5.19-5.5Z"/><path class="cls-3" d="M106.25,238.71a77.1,77.1,0,0,1-22.2-20.83,78.84,78.84,0,0,1,28.83-117.17c3-1.43,8.25-4,15.17-3.9a31.57,31.57,0,0,1,25.08,12.69,31.06,31.06,0,0,1,6.21,18.22c0-.2,23.89-77.72-78.11-77.72C38.37,50,3.12,90.68,3.12,126.36A127.13,127.13,0,0,0,15,181a125,125,0,0,0,152.68,65.52,73.71,73.71,0,0,1-61.29-7.81Z"/><path class="cls-4" d="M106.25,238.71a77.1,77.1,0,0,1-22.2-20.83,78.84,78.84,0,0,1,28.83-117.17c3-1.43,8.25-4,15.17-3.9a31.57,31.57,0,0,1,25.08,12.69,31.06,31.06,0,0,1,6.21,18.22c0-.2,23.89-77.72-78.11-77.72C38.37,50,3.12,90.68,3.12,126.36A127.13,127.13,0,0,0,15,181a125,125,0,0,0,152.68,65.52,73.71,73.71,0,0,1-61.29-7.81Z"/><path class="cls-5" d="M151.75,148.34c-.79,1-3.22,2.44-3.22,5.53,0,2.55,1.66,5,4.6,7.06,14,9.76,40.51,8.47,40.58,8.47a58.14,58.14,0,0,0,29.56-8.15A60,60,0,0,0,253,109.62c.25-21.88-7.81-36.43-11.07-42.87C221.22,26.28,176.56,3,128,3A125,125,0,0,0,3,126.22C3.49,90.54,39,61.73,81.13,61.73c3.41,0,22.9.33,41,9.83,16,8.38,24.32,18.49,30.12,28.52,6,10.42,7.11,23.58,7.11,28.82S156.69,141.92,151.75,148.34Z"/><path class="cls-6" d="M151.75,148.34c-.79,1-3.22,2.44-3.22,5.53,0,2.55,1.66,5,4.6,7.06,14,9.76,40.51,8.47,40.58,8.47a58.14,58.14,0,0,0,29.56-8.15A60,60,0,0,0,253,109.62c.25-21.88-7.81-36.43-11.07-42.87C221.22,26.28,176.56,3,128,3A125,125,0,0,0,3,126.22C3.49,90.54,39,61.73,81.13,61.73c3.41,0,22.9.33,41,9.83,16,8.38,24.32,18.49,30.12,28.52,6,10.42,7.11,23.58,7.11,28.82S156.69,141.92,151.75,148.34Z"/><rect class="cls-7" width="259.02" height="259.02"/></g></g></svg>