<svg xmlns="http://www.w3.org/2000/svg" xmlns:xlink="http://www.w3.org/1999/xlink" viewBox="0 0 259.02 259.02"><defs><style>.cls-1{fill:#ef3f36;}.cls-2{fill:#fcd900;}.cls-3{fill:#61bc5b;}.cls-4{fill:#5ab055;}.cls-5{fill:#fff;}.cls-6{fill:url(#Unbenannter_Verlauf_2);}.cls-7{fill:#eaca05;}.cls-8{fill:#df3a32;}.cls-9{fill:none;}</style><linearGradient id="Unbenannter_Verlauf_2" x1="-177.51" y1="525.48" x2="-177.51" y2="525.38" gradientTransform="matrix(923.39, 0, 0, -923.39, 164041.4, 485306.95)" gradientUnits="userSpaceOnUse"><stop offset="0" stop-color="#86bbe5"/><stop offset="1" stop-color="#1072ba"/></linearGradient></defs><g id="Ebene_2" data-name="Ebene 2"><g id="Ebene_1-2" data-name="Ebene 1"><path class="cls-1" d="M127.68.52s74.88-3.36,114.58,71.91h-121S98.48,71.7,79,99.39C73.38,111,67.35,123,74.11,146.58c-9.73-16.49-51.67-89.52-51.67-89.52S52,3.5,127.68.52Z"/><path class="cls-2" d="M238.38,191.61s-34.56,66.55-119.56,63.26l60.5-104.75s12.07-19.4-2.17-50.13c-7.25-10.68-14.64-21.85-38.45-27.8,19.16-.18,103.35,0,103.35,0S273.6,124.6,238.38,191.61Z"/><path class="cls-3" d="M17.5,192.13s-40.37-63.19,5-135.17C33,75.13,83,161.71,83,161.71s10.78,20.16,44.5,23.17c12.85-.94,26.22-1.75,43.3-19.36C161.35,182.19,119.1,255,119.1,255s-61.2,1.12-101.6-62.88Z"/><path class="cls-4" d="M118.78,255.5l17-71s18.69-1.47,34.38-18.66c-9.73,17.12-51.4,89.66-51.4,89.66Z"/><path class="cls-5" d="M70.68,128.8a56.68,56.68,0,1,1,56.68,56.68A56.68,56.68,0,0,1,70.68,128.8Z"/><path class="cls-6" d="M80.17,128.8A47.19,47.19,0,1,1,127.36,176,47.19,47.19,0,0,1,80.17,128.8Z"/><path class="cls-7" d="M242,72.22,172,92.77s-10.57-15.51-33.29-20.55c19.71-.1,103.35,0,103.35,0Z"/><path class="cls-8" d="M72.75,144c-9.84-17.05-50.31-86.93-50.31-86.93l51.88,51.33S69,119.35,71,135l1.75,9Z"/><rect class="cls-9" width="259.02" height="259.02"/></g></g></svg>