<svg xmlns="http://www.w3.org/2000/svg" viewBox="0 0 4000 2600.5">
<defs>
  <style>.cls-1{fill:none; stroke: #171a1c;}</style>
</defs>
<g id="Layer_1-2" data-name="Layer 1">
<path id="world" class="cls-1" d="M1613.87,287.43c-3.22,0-6.61,0-10,.05-8.81.11-17.62.41-26.09.89-15.41.89-38.28,2-50.81,2.48-43.53-.68-107,9.85-144.33,10-21.09-11.29-53.33-8.24-72.84-8.37-50.48-1.78-96.42,5.84-143,8.47-44.54,4-37.48,2.52-55.69,7.58-21.81,8.3-45.25,3.23-27.95,26.95,34,7.72,20.19,10,14.45,15.94-20.47,6.45-28.62,1.11-44.09.9-7.2-6.14-32.59,2.88-25.88,3.2,1.13,14.18-15.41,15.09-13,.42-15.13,3.42-20.88,3.86-52.82-.78-4,1.51-9.63,7.26-7.14,7.26,7.61,6.85,26.77,12.37,31.76,12.2,22.78-10,19.57,6.18,23,6.32,20.92.25,33.52-18.38,43.89-17.42,2.58,4.29-15.41,12.43-9.43,14.26,13.13,2.57,69.41,3.8,72.11,1.58,8.92-.39,42.62,1.89,43.34-10-31.08-.34-96.19,7.74-78.56-6.95,32.54-10.34,60.58,1.92,86.34,3.37,1.57-4.72,24-9.32,24.41-13,10-11.79,33.75-12,41.4-15.47a84.57,84.57,0,0,1,38.11-12.9c21.49-5.91,34.79-8.56,57.69-2.47,0,3.32-8,5.6-23.71,6.89-10.43,1.94-68.34,2.26-63.63,18.63,42.75,29.23,37.51,5.35,88,16.79,41.63,8.08-5,34.88,6.61,51.1-7.73,19.15-12.9,42-15.75,54.26,7.38,6-3.5,16.11,1.18,38.26-2.93,10.71,13.74,31.18,15.76,41.41,17.84-1.3,38.11,18.63,48.61,11.64,4.74-6.58,8.86-12.67,14.74-18.64,7.83-11.59,15.13-21.78,28.46-27.62,1.32-11.12,19-18.77,20.66-24.47,12.36-8.76,23.62,4.12,31.51-4.95,16.94.1,35.6-21.33,47.77-24.42,19.78-9.8,48.68-3.79,75.54-15.94,17.22-4.71,31.22-16.72,40.15-25.36-14.44-17.27-8.5-13.81,26.93-35.32,9.21-3.54,18.59-7,25.58-10.05-14.72-15.19,1.14-19.41.51-23.11-4.15-37.06-2.25-27.39,54.71-42.41,16.94-3,12.87-5.43-11-6.48-27.6,1.18-56-5.11-77.24-11.31-7-2.13-27.45-3.4-50.31-3.47Zm702.91,13.88c-3.37-.09-8.65,1.24-16,4.75-7.49-.81-21.34,11.06-26.6,10.2-4.45,2.13,4.29,3.05,6.27,3.27,12.2-3.48,2.6-4.89,12.54-1.9,8.07.45,38.43,7.11,57.25-4.15-8.37-4.86-20.66-6.21-29.48-6.48,1.55-3.13.37-5.57-4-5.69ZM2613.87,308c-14.9.25-31.78,6.44-24.64,15,14.72,2.19,75.57,16.75,82,9.05-13.88-10.59-42.86-9.78-38.29-17.31-1.89-4.88-10.12-6.86-19.06-6.7Zm-359.16,2.16a10.58,10.58,0,0,0-3.08.33c-10.86,8.42-15.21.46-32.7,3.05-8.55,4.94,36.41,7.83,45.74,8.21,6.06-5.69-5.26-3.52,1.7-8.16A25.09,25.09,0,0,0,2254.71,310.2Zm-237.44,4.35c-8.3,0-15.31,1-19.22,3.87-50,.33-58.75,2.94-58.27,6.58,8.8,15.85,4.8,11.4,42,29.05,10,4.82,13.89,4.39,15.24-1.68,8.75-18.52,39.11-12.08,30.16-6.9-5.63,8,26.88,4.43,30.83-1.53-12.8-4.56-56.39-10.57-27.62-16.1-2.5,4.12,52.94-2.08,40.83-8.84-11.23.14-35.7-4.5-54-4.45Zm665.23,11.9a11.25,11.25,0,0,0-3.83.39c-.37,5.24-1.48,10.79.17,15.42,3.72,0,38.79-3.59,42-4.31,5.89-3.83-26.16-11.31-38.34-11.5Zm37.5,17.76a35.22,35.22,0,0,0-7.12.52c-6.43,1.39-9.82,6.67-6.77,10.27-.15,1.94-23.94,7.33-26.25,5.52,1.69-2.86-31-.38-34.05,2.58-14.24,4.53-29.72,6.12-44,11.16-.7,7.52-9.43-.8-11.68,4.47-.88,4.62,11.39,2.48,17.1,6.89-11.24,5.08-37.23,2.41-50.64,4.42,9.47,11.35,38.08,20.63,32.86,21.06-18.67-.52-72.68-24-80.12-15.53,4.37,10.76,23.87.26,1.52,19.47,10.17,6.56,17.3,16.31,22.36,28.06,4,3.89,29.52-1,18.12,2.21-9.13,6.14-2.7,12.78-2.88,22.61-2.4,4.7-11.83,10.79-15.58,10.05-13.27-3.34-3.18-3.5-.51-9.36,6.28-8.93,7-16.82-2.2-20.9-7.65-4.09-13.17-13.24-15.07-21.77-18.3-14.31-11.11-20.79-13.05-23.58-3.9-3.95-26.49-5.68-19.65-6.05,13.8-1.59-13.88-8.38-13.21-3.11-1.68,6.44-5.9,20.64-8.81,22.32-11.57,8.91,3.3,7.42,3.39,15.73-.52,10,30.64,13.25,26.25,20.42-23.81-4.64-50.68-15.4-75.38-17-7.36,1.62-24.35-11.43-29.13-6.8-.95,10,18.38,10.11,25.24,16.31,3.5,3.87-6.58,9.18-9.49,6.12-6-7.74-15-1.06-29.48-.69-2.44,5.25-24.37,5.23-18.63-3.47-5.27-4.07-17.18,3.5-23.37,4.21-8.47,0-14.57,7.74-22.7,8.15-9.12,1-3.56,17.69-27.95,10.89-9.51-5.08.17-8.17,7.28-10.1-9.95-11.13-44-14.5-32.69-6.74,9.5,2.78,1.94,13.94,9.32,17.36,12.8,10.65-8.91,11.57-12.7,4.44-4.72-.72-7.78,5.61-13.56,7.67-5.09,1.6-8.19,4.53-12.36,7.85,17.35,18.53.79,8.21-25.75,4-9,8.6,9.72,8.64,13.38,12.58,1.69,4.31-8.64,3.72-17.45-1-8.22-1.26-11.12-6.61-15.41-10.75-4.06-16.47-7.62-11.19-15.75-18.37-.68-1.6,2.36-1.45,12.87.69,35.4,7.19,45.22,7.17,55.73-.2,14.23-7.68-11-23.69-15.25-21-8.45-2.79-19-6.65-25.74-9.53-11.68-6.5-29.16-1.61-39-8.89-9.38-5.66-21.9-2.24-31.34-3.37,3.88-1.06,8.43-3.24,10.33-5.63-6.27-1-25.4-8.64-30.49-8.68-15.26,2.58-17.7-4.33-23.88,0-6.52,3.09-32,1.24-30.5,6.73-5,4.16-15.75,5.93-16.26,5.47-4.06-3.8-15.07-2.15-15.07,2.26,0,2.44-.17,2.58-6.27,3.22-9.91,7-33.44,7.49-31.51,13.89.2,4.55-13.73,1-14.73,7.05,4.47,3.06,7.65-1.21,13.55-2.47,9.14,3.67-10.11,21.84-15.25,23.26-8.11,7.89-16.2,20.67-16.77,20.89-14.83,12.74-21.75,9.62-24.39,12.47-9.63,9.84-21.83,12.78-31.17,18.32-5.08,3.06-5.25,3.57-5.42,15.89,1.48,10.48,2.94,26.18,3.39,26.26,7.25,11.1,22.42,18.19,33.88,11a112.22,112.22,0,0,1,13-7.74c3.9-2,7.28-4.89,7.28-6.43.7-4.07,6.55,8.24,6.61,9.59,1.89,8.06,7.58,16.43,12.71,21.89,4.62,4.43,4.73,8.24,1.18,11.9-11.83-.73-15.91,4.4-17.28-.64,5.78-6.13-9.75-7.49-3.55-11.73,2-1.2,1.86-11-.17-11-3.51,3.29-9.51,8.33-15.08,8.42-9.15,0-15.41,17.93-8.64,24.94,3.58,4.55-.75,5.85-.17,9.68,4.65,4.82,4.73,14.48-4.74,13.17-7.31-1.81-12.82,4.09-19.48,3.2-8-1.16-15.25,3.28-16.6,10.1-1.7,9-12.88,19.06-25.58,23.21-7.46,2.44-8.64,3.43-9.82,8.89-1.72,10.14-12.28,5.68-16.77,13-7.7,7.35-21.94-11.66-22.54.27,3.56,11.38,3.22,12.34-3.72,12.31-9.13-.93-19.08-3.17-27.61.94-5,5.78-.6,12.14,3.9,12.43,23.15,1.33,35.05,31.66,28,54.41-1.87,6.16-6.61,9.5-11.35,8-20.52-5.38-38.55,1.78-57.09-4.68-7.13-2.37-25.37,7.31-22.87,14.36.85,2.31,1.86,9.42,2,15.78-.08,14.65-3.78,23-10,32.64-1.38,16.78,6.76,19,4.06,30.31,3,12.52,23.33-6.49,30.33,9.63,9.4,15.62,7.18,5.16.84,20.26-5.76,13.94-9.65,18.44-20.16,23.42-17.55,7.49-16.76,15.56-24.22,26-12.74,29.29,4.32,40.31-41.16,55.37-4.47,2.19-29.41,36-29.64,40.88-12,19.92-26.37,39-31.68,61.64.58,6.38,6.64-.17,8.81,27.56,2.92,24.35-7.52,50.13-17.79,63.58,18.24,12.76,1.75,27.51,13.56,39.42,14.49,14.67,18.36,18.33,30.48,31.15,6.15,6.6,13.55,26.37,14.4,32.57,15.57,11.14,29.5,21.78,39.64,30.83,20.5,18.44,25.58,20,41,12.58,9-4.31,13.39-5.32,26.26-6,14.23-.69,21.85.46,29.81,4.42,13.43,1.45,24.65-13,38.28-13.68a84.9,84.9,0,0,1,35.4-8.79c13-1.4,25.19,7.52,25.92,21.27,6,14.77,25.14,7,38.46,5.48,16.41,1.68,20.39,29.22,13.88,43-1.76,4.32-1.07,34.74-8.63,30.63-5.38,21.48,41.07,53.11,42.68,73.18,12.5,19.84,11.39,53.3,15.25,63,3.73,9.35,5.42,16.44,5.25,21.52-11.92,17.23-12.28,47.66-25.24,64-7.45,31.9,11.1,51.28,20.83,74.94,14.36,25,13.39,49,18.64,77.31,3.24,24.2,51,78.33,34.39,95.72,2.5,20.93,8.52,16.25,18.12,26.52,3.73,4.21,7.11,4.21,11.35.51,13.21-11.19,42.23-6.93,56.4-7.24,18.31-5,39-13.56,52.52-28.36,19.38-7.37,22.93-46.09,41.5-49.1,19.48-30,7.64-47,28-55.37,26.46-18.93,11.31-48.31,11-68.21,3.2-8.33,41.16-42.57,46.92-44.92a56.07,56.07,0,0,0,32.35-32.27c2.16-14.19-1.5-29-1.35-42.52,1.72-39.63-6.83-25.76-10.68-42.42.1-21.8-4.27-31-9.65-46,3.18-31.41,28.22-48.87,40-69.25,7.28-14.24,30.15-38.76,44.21-47.47,9.15-5.67,35.91-34.94,36.08-39.37,12.93-24.44,33.31-48.45,33.87-75.78,8.23-9.51,5-39.88-6.43-29.35-15.32,11.07-52,9.32-65.55,17.24-35.21,12.49-25.85-26.43-31.68-32.57-26.06-33.19-44.59-31.37-48.79-49.25-5.31-30.21-26.81-33.71-27.78-59.78-8.49-35.32-19.56-43.59-32.86-68.46,1.07-8.23-30.54-53.06-30.83-58.32,2.05-6.57,12.34,19.25,19.49,20.64,3.25-1.52,5.74-5,9.48-5.06,6.22,4.32,11.87,13.77,15.92,21.37,5.05,6,18.18,33.88,20.84,34.2,7,2.88,16.15,21.18,14.9,28.63-4.6,16.45,29.4,37.73,29.48,45.67.59,5.65,23.27,32.07,6.27,29.69,11.43,21.49,23.69,22.86,26.76,52.62,4.65,29.62,27.75,1.89,39.13,1.68,42.28-1.37,69.84-52,104.68-52.2,45.71-29.94,60.25-41.8,62-79.88-13.63-18.38-47.33-23.57-47.77-48.2,0-10.49-2-12.48-5.59-5.42-40,59.25-59.76,29.63-57.25.1-30.21-1.32-24-13.1-36.42-28.26-21.93-23.93-1.06-26.46,9.48-29.37,12.51,6.09,14.83,28.24,29.14,33.43,24.81,12.79,25.48,19.44,46.92,16.79,8.11-1,12.45-11.25,16.94-5.27,5.76,16.86,13.64,20.71,27.44,22.31,27.22,3.68,57.64,5.94,82.67,2.25,19.6-7.34,23,21.67,32.35,22.17,23.73,15.08,11.13,12.79,15.59,20.3,0,3.2,23.37,25.15,26.76,25.06,28.44-11.82,18.51-7.39,25.41,16.67,6,19.68,9.34,40,18.12,57.8,5.83,10.89,12,22.63,14.91,34,4.42,18.4,22.16,33.71,23.2,52.77,0,4.38,9.15,18.34,13.55,20.68,15.14,2,10.91-18.55,25.75-14.21,7.2,0-4-2.52-1.35-11.47,16.32-4,3.22-25.18,9.15-33.68,2.71-3.18,2.88-16.94.5-29.89-3.38-18-2.54-22.81,4.24-21.15,2.5-.42,19.24-14.44,19.31-16.16,4-11.82,19.08-19.15,26.76-30.1,5.21-8.82,14.86-11.45,22-17.9,6.94-6.83.32-12.91,5.42-19,10.36-6.76,17.79-.3,27.78-3.47,15.14-4.44,17.81-4.38,21.17-14.21,3.94,3.14,8.53,9.71,8.64,12.78-4.44,8.64,27.15,32.22,26.59,33.94-.74,20,4.78,1.85,12.2,18.21,4.32,12.83,2.43,19.55,1.52,33.06,11,4.49,33.82-4,34.22-15.16.17-5.27,11.35,18.1,12.88,26.57,1,7,20.93,53.9,7.45,48.84,2.47,8.57,21.41,11.8,1.69,12.31,6.22,7.64,6.51,18,4.58,26.42-1.7,7.09.5,21.81,2.7,19.47,7.3-3.82,11.71,5.51,16.44,11.73,3.63,20.33,9.63,1.91,9.82,21.7-1.14,11.67,13.47,31,13.89,36.3,0,2.7,3.22,5.93,12.2,11.94,4.59,13.16,24.94,12.58,25.07,21,1.57,5.1,13.9-6.3,2-7,.4.08-1.29-6.53-1.52-9.26-12.46-15.88-5.88-29.78-11.18-45.26-1.24-2.7-25.61-29.59-28.29-29-8.49-8.24-16.74-38.94-19.14-42-13.31,19.21-7.88-14-5.59-22.54,3.76-7.8.56-29.07,8.13-30,9.59,1.62,1.64,12.9,10.67,12.83,9.65,2,22.08,10.92,24.56,21.79,0,2.6,6.1,8.85,8.64,8.85-3.46,3.14,22.5,3.87,17.11,8.27-3.05,1.85-2.37,20.36.85,20.36,10.49-2.89,23.66-26,25.74-27.37,10.1-.84,14.89-10.18,23.38-13,8.77-11.4,3-24.1,1.69-34.9-.94-8.92-11.83-35.82-19.64-38.31-3.9-1.23-23.89-20.17-23.89-22.63-4.87-7.37-11.48-13.83-11.52-21.3,0-11.23,24.17-35.7,34.72-31.9,3.29,1.43,11.32-.27,10,3.42-.59,1.59-.09,4.28.94,7-9.86,2-12.57,19.66-4.77,24.06,18.13,6.37,17.69-8,23.89-18.73,1.93-6.88-3.46-7.14-8.87-6.45-.23-3.34.35-6.37,7.27-7.56,5.86-6.78,30.76-2.71,28.8-16-2.36-7.94,8.75,12,9.32,3.52,5.67-7.6,24.62-6.06,27.61-13.52,2.83-7.06,26.08-18.06,22.19-25.83,5.5-3.27,14.37-31.4,14.57-35.69,4.58-21.28,13.86-28.36,8.13-46.36-10,9.89-5.17-4.27-11.52-17.21-5.65-8.67-13.91-10-18.64-18.3-6.77-11.84-14.23-19.54-22-23.28-7.62-3.55-8.3-4.39-7.28-8.24.7-16.27,27.54-21.5,27.61-28,6.66-3.17-35.59-13.08-33.2-7.88-1.11,8.35-10.24,7.68-12.54.67-1.87-13.09-23.2-6.48-23.71-18.35,5-8.26,18.35-7.67,25.41-22.22,4.12-11.48,19.23-4.21,15.24,4.37-1.66,3.47,1.63,20.56,1.86,20.57.85,0,4.41-3.13,8.14-6.93,8.38-8.57,23.2-10.91,34-4.8,3.93.75,3.21,24.43,5.08,21.84,3.26-4.06,34.75,11.88,25.41,13.47-2.87,0-1.86,2.93,3,8.1,7.12,7.78,8.64,10,7.63,11.11-4.08,6.64,1.95,11.08,2,16.47,0,3.54.68,3.83,7.62,3.42,8.3-1.75,26.69-7.07,27.1-16.09,0-6.72-10-24.24-18.12-31.8-7-11.76-22.77-15.74-30.33-26.1-3.53-9.64,19.87-13.65,13.39-26.37-10.05-30.44,24.59-19.53,32-21.1,5.42-2,14.9-12.9,14.9-17,10-13.11,5.06-48.48,9.82-60.62,1.09-6.59-7.73-26.66-11.68-29.95-6.27-4.31-12.88-22.26-8.31-22.26,14,8.12,26.54,22.86,33.54,37.2,3.61,8.61,12.46,14,15.59,22.43,5.17,10,10.28,19,19,27.1-.93-5.75-3.26-12.38,2.37-11.32,3.67.27,10.59,8.16,10.84,5.27,0-3.16-5.42-10-8.13-10-16.61-10.56-18.27-14.73-24.9-30.74,3.69-8,22.79,6.89,22.87,4.17-5.42-5.31-12.5-9.35-18-14.59-3.73-3.77-13.39-12.9-21.69-20.31C3411.65,670.7,3382.6,636.23,3376,638c-2.37.89-1.86,1.67,2.54,4.33,8.09,31.12-4.87,9.56-26.08-1.36-27.27-1.09-69.35.14-56.75-17.86,7.28-9.24,10-14.42,7.79-15.15,1.39-5.66,11.34-35.41,14.07-36.41,5.59-2.1,29.81-2.37,31.16-.37.51,1,2.54,1.79,4.41,1.79s3.05-.61,2.54-1.31c-.34-.73,5.42-1.08,12.87-.85,16.24,4.22,10.88-6.66,14.57-5.62,16.82-2,27.25,11.17,29.47,11.2,8.58-.49,49.4-3.67,24.06-10.31-11.79-3.64-4.56-27.3,3.55-28.1,9.32-9,30,11.16,31.51,10.52,33.76,9.45,14.57-21.12,14.91-21.27,12.09-3.69,8.89,14.06,18.12,15.42.65,8.2-9.09,19.73-7.28,30.32,1.53,7.24-5.31,16.76-11,16.84-3.81,5.77-.7,4.71,4.23,12.3-1.35,7.08,7.45,18.58,27.1,35.42,13,14.63,3,4.58,30,26.1,8.26,5.83,22.43,27.7,28,17.06,4.95-10.75-9.79-19.54,4.57-25.78,3.73-4-11.87-9.08-9.66-16.07,10.63-16.85-17.25-29.62,5.42-24.35,1.53-1.58-6.26-9.51-9.48-9.58-10.5-2.8-12.66-18.33-23.21-16-8.79,3.47-17-26.39-15.41-26.15,15.57-13.18,68.07,3.95,64.2-4.21-5.41-26,52.14-27.56,52.17-30.68-5.45-10.7-39.11-17.39-42.35-26.05,8-18.64-4-12.56-9.31-19.79,19.85,1.54,45.59,15.47,64.7,16.89,10.37,2.08,33.41,5.66,34.39,5.05-20.11-19.11-6.31-14.23,15.24-11.46-26.21-25.35-70.26-16.82-95.71-28-9.14-4.43-85.2-23.31-110.1-27.31-8.3-1.35-21.68-2.73-29.64-3.1-33.75.73-33.7,5.07-74.54,3.1-13.72-.44-44.88-.58-47.42-.21-32.79-9.84-48-17.77-79.78-16.52-46.47.09-88-15.78-132.81-20.05-40.71-6.59-36,3.07-35.4,5.05,26,13.81,9.25,7.64-10.84,7.58.14,5.08-42.64-2.53-42,0,9.93,21.83-24.62.7-30.82-4.84-17.88-15.41-42.07-15.65-64.71-20.58-15-1.75-11.78,1-5.08,8.58-38.75-1.47-36.72-7.09-89.27-6.21-11.57-4-20.24-9.62-25.07-17.21-3-13.76-38.09-17.61-46.92-17.68-28-2.06-38.5-9.76-66.91-10.84ZM868.79,346.89c-13.88-.32-73.46,11.55-75.27,16.37,5.41-1.35,48.78,11.65,51.66,14.26,6.78,9.59,25.24,2.45,28.22,2,10.57-1.77,26.48-3.63,35.35-4.11,21.91.52,51.93-14.46,14.67-12.73,6.44-8.43-1.15-8.79-7.57-6.9-14.81,4-6.74,11.33-17.84,11.58-12.6.21-12.41-7.86-25-9.31-17.18.51-2.4-6.41.85-7.11,10.13-3.11-1.89-4-5.09-4Zm1552.65,4.75a28,28,0,0,0-13.28,3.73c-12,6.3-47.36,1-54.54,8.57-3.21,4.77-20.79,5.31-20.16,9.79-6.63,18-12.42,19.11-22.2,36.46,3.93,10.86,58.72,22.43,62.35,14.74-1.19,3.1-38.13-11.61-25.08-23.73,7.17-4.86,12.56-19.86,21.86-21.89,14.33-8.61,26.69-11.23,38.28-13.53,29.64-5.81,35.57-9.55,21.34-13.36a32.26,32.26,0,0,0-8.57-.78Zm622.41,9.55c-7.06.05-12.66,1-12.74,4.28,0,4.76,5.93,7.64,25.41,12.1,13.76,1.11,47.95-.17,50.14-7.2-9.63-9-21.35-4.9-36.93-8.11-5.3.28-16.8-1.13-25.88-1.07ZM787.32,378.66c-16.18-.06-33.74,4.51-44.14,10.75-11.11,6-34.18,11.71-42.24,20.36,67.87,11,66.52,18.45-12.54,27.74,11.38-11.52-53.76,8-48.17-7.16-15.73-15.7-98.48,25.25-98.52,9.11-17.82-18.17-111.23.86-120.37-19.46-46.86.33-120.18,5.13-160.07,35.93,23.9,23.63-18.86,19.87-21.18,20.36-5.74,2-54.32,9.29-44.36,13.42,6.23,23.22,21.94,13.89,41.67,14.21-1.49,7.27-38.48,14.91-43.47,14.12-16.18,2-34.29,15-48.33,18.52-40.15,38.07,30.61,24.74-10.9,41.46-8,7.39,27.11-4.21,25.93,2.73,51.84-14.55-30.51,24.65-58.44,34.42-44.72,5.74-56.39,8.6-66.53,22.16,8.19,2.36,53.15-16.44,55.74-8.79,22.31-4,45.17-20,66.49-24.42,3.65-5.4,90.68-42.35,89.83-32.69,10.43-3.2,52.38-5.81,61.77-10.25,19,2.35,22.26,1.6,40.86.42,25-2,46.18,24,35.62,38.16,6.81,14.41-9.89,32,5.25,33.36,5.26-.07,16,29.67,11,38.26,7,19.76-14.45,18.88-14.41,19.89-11,1.4,26.38,31.55,20.06,31.1-5.15-.39-5.84.49-10.06,13.57-2.81,8.73-12.52,26.64-16.77,31-20.66,17.52-27.43,45-41.72,62.5-4.38,4.69-8.38,27.93-7,31.06,2.44,21.79,5.39,35.53,5.93,56,31.56,17.77,25.69,30.77,31.39,58.1-1.06,12.11,6.46,20.31,11.95,28.67,1.7.8-3.76,19.2,3.71,31.75,19.24,8.74,10.44,16.08,8.1,28.08,11,8.27,18.42,24.6,24.14,27.84,16.32-5.88,1.2-16.35-2.76-33-.73-7.73-7.48-33.28-13.33-36.78.64-27.4-.62-14.56-10.91-30.53-4.41-7.34-.89-28.91,5.77-26.1,14.71,3.81,10.91,10,12.34,21,2.83,25.75-6.69,11.25,8,26.62,9.75,15.35,18,28.4,15.72,35.84,17.84,22.8,37.39,36.53,37.42,65.52.38,12-7.77,15.78-1.42,25.74,13.55,14.79,56.52,41.46,69.82,43.31,28.25,16.47,32.38,9.35,55.15,6.73,6.88,0,15.37,5.44,21.7,13.89,10.55,14,15.69,18,25,19.52,28.61,6.73,57.72,27.92,59.4,48.69,10.3,4,27,30.65,28.16,30.73,18,4,31.34,21.1,39.33,17.31,3.83-20.53,15.26-24.43,30.81-1.88,10.7,17.67,6.77,62.12-5.4,68.77-11.18,6.38-7.2,18.89-16.84,22.58-14,.24-15,45.77-18.36,46.51,2.64,14.83,1.89,14,1.75,23.95-12.68,4.64-2,35.05,4.5,38.41,13.64,9.77,22.8,28.32,29.75,43.68,2.68,8.58,33.54,60,33.28,61.57,7.49,40.76,73.31,45.47,84.82,77.83,2.71,24.74,12.25,121.91,7.35,140.88,6.7,40.41,13.87,63.52,9.31,107.88-6,25.42,7.79,59.45,13.4,87.06,5.77,24.64,10.13,50.33,8.78,67.7,24.37,52.15,57.11,84.67,75.17,101.37,20.31,6.7,28.86,20.47,56.85,20.55,18.17,7.94,24.28-3.78,28.8-6.4,23.2-7.61-12.33-5.62-33.83-26.1-6.42-12-25.53-22.68-26.41-36,16.21-13,2.37-18.47,16.52-31,16.44-18.08-20.06-21.5-24.89-29.64,24.37-16.48.34-40.36,24.62-49-7.63-26-20.8-2.91-22.7-28.3,26.22,12.33,41-4.34,27.42-22.56-7.58-8.7,41.64,4.81,50.18-19.54,5-16.36-2.59-38.79-17.27-47.15-4.54-1.21-9-11.57-3.54-6.65,34.43,6.21,47.66,21.47,57.92-8.84,5.68-18.34,25.17-35.41,28.95-51.31,2-8.88,7.15-18.52,11.11-20.73,9-8.87-2-48.32,2.29-48.78,25.2-17.73,36-33.3,66.74-34.31,7.41.85,21.65-15.64,20.85-18.79,4.66-4.21,15.12-54,15.21-54.11,9.29-9.85-2.33-72.88,8.47-73.41,8-19.88,33.06-41.85,41.33-61.31,4.59-20.14,1.81-34.61-5.76-52.77-19.76-3.78-26.06-7.45-35.74-16.69-35.06-17.43-64.07-21.3-88.93-41-13.33,3.17-35.34-11.55-50.39-15.73-14.11-7.75-27.07-35.3-27.58-54.58-.82-12-40.64-40.13-62.58-34.15-25.11,1.87-26.87-16-35.41-26.37-6.08-8.38-29.54-12.83-26.09-17.83-9.49-9.57,3.43-29.49-2.39-27.42-26.28,5.78-28.38-1.61-47,9.26-3.33-7.22-44.82-2.6-45-9.06-12.07-14.09-18.92-24.43-22.92-20-6.22,21.08-20.61,26.09-14.88-2-7.65-.13-35.86,20.36-44.26,18.43-6.86-1.72-16.23,12-14.7,21.57-3.19,5.38-18.28,11.74-17.16,17.73-14.42-8.73-24.18-21.87-42.2-12.58-23.94,12.34-30.71-2.69-42.28-25.14.51-10.75,8.16-50.79,12-57-.13-10.88-29.31-20.16-36.69-15.73-10,3.74-25.59-.31-33.08.62-1.64-29.06,38.53-58.62,35.25-79.25-3.89-7-42.33-1.76-46.53,6.89-18.08,46.68-46.29,36-69.23,30.48-8-4.12-21.48-40.56-19.75-52.53,9.54-37.24,20.92-76.68,45.43-91.35,13.1-9.1,44.14-20.35,56.9-9.41,52.36,6.6,34.13-28.49,70.72-11.86,25.35,24.19,31.13-10.37,31.86,27.43-1.35,2.6-2.27,6.52-2,8.73,2.59,17.28,9.11,31,19.89,38.73,21.78-1.83,10.23-55.64,8.91-61-5.9-22.1,9-41.84,25.56-50.3,7.86-5.91,38.06-28.06,47.21-28.58,25.3-23.28,40.13-42.75,37.81-60.15-.5-3-.19-5.88.67-6.42s1.6.19,1.6,1.64c0,3.72,1.06,3.38,9.11-3.17,3.91-3.2,8.15-8.43,9.42-11.61,2.05-5.22,3.25-6,11.81-7.75,11.78-2.39,21.3-6.4,16.24-6.84,31.32-1.2,20.77-18.42,22.17-19.57,6.78-11.6,17.27-18.06,27.8-21.69,18.58.22,37-23.44,55.05-19.36-6.45,8.74-31.21,13.23-20.38,24.62,25.34,3.8,35.13-18.36,63.37-22,6.83-7.37,19.6-9.11,20.53-13.9-9.6-3.59.85-8.61-3-12.53-28.4,16.37-38.62,8.91-50.67-.47,7.78-12.41,21.35-32,4-31.77-16.27,5.44-9.5,1-14.82-4.43,13.39-12.66,36.58-8.42,49.6-8.37,46.16,5.87,50.22-16.69,71.47-17,9.42-1.25,1.29,3.8-2.39,7.37-33.29,35.66-50.8,45.68-21.18,47.46,43.18,1.71,39.85,1.33,37.17,4.26-2,25.94,20.88-3,17.89-11.1-7.82,1-11.6-10.2-2.54-14.95,3.33-4.76-2.08-5.94-1.85-9.74-16,7.82-14.7-4.47-25.26-6.67,12.71-11.43,10.49-5.09,15.72-15-14.63-4.07,3.08-8,6.58-20.48,1.31-19.67-12.58-33.35-34.16-36.2,0-27.49-11.87-38.49-8.57-73,.59,4.19-16.53,14.08-18.53,15.94-5.72,5.17-24.24,19.23-31,14.05-13.28-9.15-9.33-22.89,1-32.37-15.88-7-16.46-6.59-30-21.62-16.43,1.94-47.65-7.66-50,9.73-31.73,35-25.12,28.2-23,55,0,4.16-6.32,17.26-9.84,20.41-14.13,10.07-29.48,15.47-46.16,18.37,6.63,19.91-28.13,62.72-30.39,45.1-23.28-5.75,18.15-39.11,7-49.58-27.85,4.82-39.56-17.79-58.06-23.62-10.93-5.53-18-4.75-28.8-2.58-1.25,0,.66-8.76,3.45-15.73-1.36-7.19-16.62-4,5-29.74.64,0,5.7-3.4,11.23-7.52,21.16-14.4,47.75-22,68.28-34.78,13.63-8.43,24.05,2.39,33.35,2.15,17.36,8.1,3.39,4.57,25.46-.26,17.32-13.06,15,6,33.78-.15,1.62-23.18,24.51-57.43,37.52-62.16,3.68-15.38,33.79-14.34,20.22,4.68,30.47-5,6.63,3.54,10.17,10.53,36-4.43,40.34-.69,25.41,9.16C1131,491.73,1056,492,1064.08,503c29.46.7,49.78-7.58,50.44,14.41,7.22,11.46,61.77,28.14,60.24,20.16-10.1,2.21-16.11-16.78-3.21-14.46,12.49,8.27,10.31,3,20.37-6.64-23.08-26.3-4.83-31,14.66-20.9,15.13-4.2,28.73-12.12,41-21.42-10.29-9.54-36.72-16.12-46.16-25.51,39.78-28.95-50.48-38-39-51.37,0-4.83-6-7.41-19.48-8.36-19.36.91-31.16,1.14-53.36-1.43-11.57-4.48-44.12,5.51-58,17.84-21.68,16.21-14.43,31.18-.33,26.06-41.82,59-41.51-7.29-43-20.16,7.66-8.2,59.6-22.75,57.12-25.32-7.4-2.43-14.93-1.45-22.72-2.47-4.75-.65-25.14,4.32-28.47,7.21-11.39,5.33-10.78,16.44-21.07,20.63-9.8,2.69-19.66,14-25,16.94-23.57,9.51-37.09,17.23-47,27.27-3.54,3.67-5.23,4-22.92,4.25-26.66-.9-33.09-7-4.33-9.48,5.89-6.5,28.36-10.54,29.32-17.56,0-1.77-7.15-5.63-15.62-8.47-8.52-6.38,26.76-30.93,29.22-33.16-2.62-3.63-40.51,4.91-42.72,7.16-16.66,21.41-4.86,7.84-10.74,1.21-14.8-4.14-35.76,4.87-44.79-10.79-6.89-7.06-18.65-9.91-31.23-10Zm197.25,5.81c-23.33,3.2-26.58,1.12-38,4.84-1.06,14.82-13,3.49-23.18,8.63-5.18,9.41,11.12,8.47,11,16.46,10.55,7.14,28.47.79,39.12-9.25,6.9-6,12.42-13.29,11-20.69Zm699,92.12c-15,.58-38.18,9-39.23,6.71-8.29,8.63-12.71,0-20.32-4.37-10-6.51-18,3.28-25.58,9.05-.92,4.08,33,3.26,9,6.95-8,1.1-10,2-8.81,3.95,15.55,1.47,25.28-2.11,9.31,10.74,0,1.7,2,2.19,8.13,1.83,15.21,1.59,28,7.57,42.35,2.78,9.87-3.81,45.09-12.28,46.08-21.94-14-6.26-6.52-15.59-12.2-14.62a21.53,21.53,0,0,0-8.71-1.08ZM2067.73,487a60.5,60.5,0,0,1,10.92,1.16c11.3,3.22-7.38,12.94-15,22-10.82,13-12.37,21.51-13,37-.5,12.53,8.49,10.07,16.6,15.95.34,1.11,5.08.55,13-1.57,11.39-.48,21.74-5.25,31.51-6,19.07,0,16.2,2.51,9.32,10.47q0,3.17-25.41-.15c-22.53,2.24-13.63,16.39-27.44,7.31-5.05.71-9.9,7.9-9,11.26.29,11.84-7-.64-7.12,30.79,1,8.57-1.86,13.42-7.79,13.42-.73,3.83-13.38,14.41-15.58,5.1,3-4.95-21-2.64-25.41,2.43-7,3.94-27.65,8.46-28,0-8.09-7-28.68,10.34-28.8,4.36,13.49-13.63,14.49-3.46,14.06-17.51,6.21-9.16,3.21,1.37,13,1.41,6.27,0,7.63-.61,8.14-3.32,13.45-8.18,19.8-11,22.86-9.36,2-2.07,6.1-14.06,5.26-14.95-7.48,9.74-3.56-4.4-2.55-15.51,7.86-4.77,34.58-16.37,12.88-26.43-16.63-9-8.9-8.91-8.81-20.68,2.77-8.34,15.42-19.52,25.07-20.05,11-6.88,15.65-20.45,20.16-25.16a28.77,28.77,0,0,1,10.93-1.9Zm-267,82.1c-1.56,0-3.59,1.34-5.61,4.74-5,9.7-15.93,2.25-20.83,9.21-4.46,10.09-11.74,7.54-15.08,10.21.35,5.95-4,9.71-5.76,15.3,17.19,2.29,9.4,2.1,3.39,9.76,7.63,1.12,13.67,15,16.6,15.94,15.4-5.64,10.64.23,15.25,5.31,5.33,9-.73,12.58-8.47,11.63-9.74.25-.91.69-10.67,9.68,23.85,2-19.68,14.25,4.06,15.83,8.13.43,14.23,4.06,6.78,4.06-6.59,3.62-18.54,11.35-22.7,16.94,4.69.78,25.16-3.32,26.76-5.15,7.68-2.43,24.72-4.76,33.71-4.31,7.62.4,21.68-4.36,21.68-7.38-12.92-7.59,8.2-10.39,3.56-20-18.82-13.26-12,5.42-17.79-18-3-7.12-12-8.58-14.06-15.62-1.53-6.44-5.93-12-9.32-12.11-4.36-4,3-14.23,6.44-17.58,4.07-4.18,1.19-6-9.49-6-3.09-.36-13.1.16-10.16-3.37,16.81-6.63,16.37-19,11.7-19Zm-53,55.2c-5.51-.1-10.71,1.39-13.77,5.11-.36,13.57-16.32,5.17-19.65,11,.32,5.94-1.71,11.36,2.54,12.48,11.82,4-18.21,20.56-7.46,21.2,3.37,7.14,17.94,3.41,26.6-1,8.49-4,18.21-3.41,20.33-10.54.65-14.59,11.89-27.81,7.11-33.68a32.32,32.32,0,0,0-15.7-4.47ZM835,717c16.51-.25,14.08,12.54,12.41,28.59-6.39,2.46-9.39-4.37-20.86,1-11.26-19-34.57-2.6-57.27-4.46C795.9,721,798.69,726,823.8,718.53A57.09,57.09,0,0,1,835,717Zm1432.48,22.38c-3.45,3.63-13.07,4.6-14.4,7.58,3.76,5.66,4.18,5.14,1,12.26-1.19,4.24,2.45,3.85-5.8,5.58,5.3,1.43,21.08,15.89,29.85,22.9,5.08,4.17,12.7,9.23,17.11,11.21,5.59,2.58,8.81,5.36,10.84,9.73,3.73,7.3,2.71,10.21-4.06,14.22-3.73,2.15-9.49,3.18-21.18,3.57-9.78,1-44.31-7.84-47.94-12.21-2.54-3-3.89-3.2-16.43-2.06-10.33,1-15.75,2.43-21.68,5.85-10.39,9-29.12,9-41.5,2.62-4.4-2.3-10.67-15.47-8.64-17.63,4.34-7.27,11.16-27.89,13.89-29.25,7.69-4.31,8.87-25.47,19.14-25.63,2.54,0,4.24,1,4.24,2.48,6.62,6.34,17.36,2.83,22.7,6.09-2.8,1.62-11.8,7.94-9.83,8.48,16.41,2.7,10.71,12.3,16.6,13,8.3-1.32,15.48-8.07,24.05-8.15,10.67-1.67-.8-5-4.06-6.36-3.5-.59-6.81-5.54-8.64-7.43,3.91-4.12,8.63-9.53,14.23-10.35,7.54-1.44,15.09-4.33,22.19-5.33l8.3-1.16Zm155,4.23c9.19-.07,13.9,24.24,8.43,22.2-9.58-1.93-21.52-4.33-21.17,7.67-2.84,3.12-10.1.45-7.63,4.95,4.39,4.94,15.18,9.9,15.25,16.94,25.31,15.42,16.61,9.91,18.12,23.48,7.9,4.82,5.5-2.45,11.08-4.31,7-.06,15.63,13.1,16.43,15.26-11.54,6.8-5.62.93-11.85.84-7.52-.91-6.79-1.62-9.05,2.21,2.94,15.42,16.87,23.9,19,36.52,4.86,20.34.91,16.9-17.44,21-11.27-.36-39.25-15.14-41-25.21,3.53-19.54.45-17,13-27.14-8-7.87-17.57-14.89-24.56-22.32-13.89-15-16.1-18.2-16.1-23.2,0-5.54-4.91-12.4-10.67-14.75,11.51-23.14,48.92-32.81,56.24-33.84a5.67,5.67,0,0,1,1.9-.35Zm-1586,11.57c-19.46,12-27.95,41.1-40.77,54.61-8.22,8.18-12.81,9.45-13.12,3.59,5.41-28.45,23.63-57,53.89-58.2ZM882,756.52c2.37,0,4.49,1.77,5.73,5.26,4.06,11.63-3.49,18.22-9.44,8.21-10.79-6-15,19.6-21.85,24.32-6.92-6.9,10.77-27.27-18.48-5.79,14-19.25,16.91-13.55,7.57-29.94,15.69-2.08,28.9-1.74,36.47-2.06Zm1093,3.66c1.35,0,2,.29.7,1.13,5.44,27,48.09,38.51,70.64,55-2.77,10.43,5.07,34.34,7.79,34.53,7.68,1.85,6.92,9.74,5.08,14,0,14.94,11.78,4.7,15.24,19.06,11.68,4,15,2.92,17.79,14.05,8.68-16.28-3.33-17.87,3.89-16.84-.63-5.17,11.17-12.29,18.13-3,9.3-8.28-36.38-28.66-28.46-41.06,4.9,1.13,17.42,10.56,18.46-.37-8.87-12.46,29-6,22.7.27-9.49,7.86-6.13,15.87-.51,18.31,19.41.54-11.85,18.74,11.52,20.84,10,3.22,1,11.26,1.53,15,13.56-3.53,8.91,6.2,10.5,8.57,8.16,3.39,2.43-11.08,9-9.46,7.89,5.13,26.28,12.92,24.9-.23-.68-4.93,13-.6,20.83,6.59,1.82,1.66,4.8,2.49,8.06,2.62a23.93,23.93,0,0,1-3.8.7c-4.75,0-3.56,5.2,1.86,8,8.5,3.72,9.41-1.73,16.77-4.58.83-3.78,5.92-9.54,5.59-11.32a27.39,27.39,0,0,0-4.51,1.2c3.37-4,6.21-4.42,10.92-1.52,11-1.21,4.24-1.62,8.31,15.83,2,2.19,3.39,13.47,2,15.16-2.2,2.44-8.3,21.08-10.34,31.15-1.23,15.3-20.83,20-29.3,13.59-6.27-5.47-24.9-3.5-32.36,3.42-15.68,7.49-33.56-10.31-50.64-7.58-11.92-7.15-27.06-9.5-39.3-18-2.54-4-18.64-.29-26.26,6.09,1.72,19.66,10.77,37.51-23,26.22-7-4.93-17.62-8.74-24.74-8.74-22.92-24.65-33.84-16-56.91-27-20,2.15-31.43-21.14-9.66-22.42,3.92.31-2.24-16.08-2.37-16.16,7.4-19.22-5.32-14.46-6.27-18.16-1.35-5.25-8.29-6.26-15.92-2.3-13.39-6.67-38.82,11-47.43,5.57-4.57-2.79-9.31-2.59-32.18,1.21-19.14,3.19-30.49,7.11-30.49,10.53,0,1-1.19,1.31-2.54.79-10.56-.35-20,18.45-31.85,9.14-8.26-1.67-18.49,2.92-24.9-1.63-13.63-13.8,9-18.55,19.48-18.68,15.81,5.5,16.85-9.19,26.43-11.26,3.13-1.71,19.7-18.52,16.43-21.25-10.65-8.71,13.2-30.94,17.11-31.53,18.92-7.78,20.69-11.72,20.49-24.62,0-8.26,18-11.23,28.29-4.69,12.18,5.53,26.21-10.25,36.76-16.73,27-1.13,17.19,19.49,18.12,23.36,11.91-4.22,22.2,20,37.61,21.79,10,3.85,28,18.18,30.83,26.1,6.26,16.48-17.68,18.74-28.63,17.93-10-.87-12.87,0-12.87,4,5.09,3.12,22.4,15.74,28.46,17.26,11.75.43,1-21,10.67-18.05,8.21-1.45,22.3-19.26,14.23-24.52-6.52-6.42,5.57-12.32,14-3.89,2.54,2.49,2.89,2.43,4.41-.91-4-19.1-26.33-15.92-27.27-28.93-23.47,2.39-25.08-20.28-38.12-28.26-8.33-5.49-9-21.11-2.54-23.52,1-.81,5.35-1.71,7.61-1.72Zm1484.4,1.4c-14.55,10.42,14.85,9.51,10.67,26-.26,17.83-16.51,6.63-7.79,23.3,1-3.2,8.3,2.27,9.48,7.21,2.34,4.06,5.53,4,7.62,2.29-.43,14.91,17,26.94,9.32,39.09-14.66,26.28-16.86,4.35-21.34,7.37-5.84,7.54,11.65,7.19-1.7,16.21-3.78,3.91,2.32,7.05.34,10-5,1.54-9.91-1.17-15.07.06-4.17,2.11-22,.13-22.19,3.84-8.63,8.42-11.93,14.65-17.28,23.1-6.43,5.07-10.49,7.92-5.42,13.37,8.06,5.35,11.87,10.94,15.07,22.05,3.25,4.26,8.35,6.64,11.52,3.36,5.53-9.66,3.77-16.37,2.72-27.88-1-8.62,18.58,13.74,14.73,3.36-.05-18.9,14.81,3.39,13.21-16.68.74-9.09,8.53,6.68,13.56,7.79,7.18-8.23,8.2-11.89,18.8-16.26,12.62,1.1,4.62-14.27,10.33-3.74,9.93,10.44,1.59-12.74,11.52-2.9,8,5.34,8.84-11.25,6.1-14.41-6-8.34-2.32-18.08-8.47-25.26s-.86-6.11,3.38-8.32c-1.49-21.23-19.84-29.13-25.4-43.36a16.44,16.44,0,0,0-5-3.28,16,16,0,0,1,5.51.75c28.24,12.3.79-7.82,20.33-8.37,5.76,0,11.35-3.29,11.35-6.42-7.82-4.34-6-10.83,0-15.05-4.33-5.34-7.29-.06-7.79,3.1-2.23,1-13.11,1.75-21.51-1.27-14.19-.11-23.5-17.68-36.59-19Zm-2536,10.32c6,0,3.64,4.73-4.09,8.1-7-.13-46.41,6.21-28.52-2.52,9.47-1.66,25.79-5.5,32.61-5.58Zm1005.16,14.21c-2.94,3.83-9.07,4.84-11.18,9-1.59,9.58,9.39,15.55,3,19.73-4,3.48-13.51-2.61-6.77,8.37,4,6.74-3.58,17.76,2,22.32,6.1,4.07,6.1-2.37,11-2.48,3.38,1.31,4.4-1.72,4.91-16.2.34-9.62,0-11.87-2.71-13.79-4.48-6.16.62-12.93.67-20.85,0-4.43-.33-6.2-1-6.15ZM887.33,788.89c-8.89,6.23-41.94,23.83-52.41,18.27-2.5-2.75,8.13-5.6,16.52-9.85,18.16-5.39,19.37-5,33-7.88a18.69,18.69,0,0,1,2.86-.54Zm2596.72,19.22c-1.58,1.08-2.45,3.33-3.06,5.65a6.25,6.25,0,0,0-3.08-2.71c-2.83-1.18,1.26-2.45,6.14-2.94Zm-1380.4,85.76c-2.62.13-4.36.87-4.57,2.54.4,7.17,38.48,10.47,34.72,3.48-6.46-1.39-22.28-6.43-30.15-6Zm1236.08,150.84c-3.55-.23-8.1,4.23-11,11.79-7.13,21.81,2.05,21.64,6.94,35.16,3.91,5.2,5.11-8.29,5.93-10.55,1.36-3.82,2.71-12.86,3.05-20.09,1.13-11.18-1.41-16.09-5-16.31ZM773.07,1085.84a31,31,0,0,0-7.77.84c-2.8.77-8.64,2.29-13,3.37-9.9,2.07-25.69,15.44-17.67,17.1,29.6-7.65,27.12-4.49,48.48-3.73,19.68,5.39,34.73,16.4,36.57,29.67-1.08,2.85,34.63,2.09,42.1-.89l5-2c-6.86-3.57-22.15-14.79-25.78-15.9-7.16-2.14-17.26-10.64-17.26-14.53,0-1.08-.48-1.51-1-.94-13,1.63-29.57-12.76-49.62-13Zm109.48,46.92a15.41,15.41,0,0,0-5.4.65c-6.06,2.73-6.43,5.37-.79,5.37,17.25,25.41-15,8.44-18.84,15.31,4.12,15.32,28.18,3.05,34.31,10.47l3.49,4.68c9.7-15.17,20.23-13,36.42-8.57,9.72-12.34-10.75-17.77-13.13-20.84-4.07-3.39-25.35-7.08-36.06-7.07Zm2470.33,8.4c-4.19.12-8,1.68-9.13,5.42-2.46,4.81,4.38,35-.17,29.05-5.42-6.67-6.1-1.13-1.7,12.41,4.74,8.47,3.83,15,6.1,21.69-.2,5.86,6.58,11.14,10.17,18,3.72,7.09,6.26,8.46,9,4.74,2.88-3.76,1.53-10.85-2.71-14.52,9.17-8.68,25.33,13,25.41,15.93,0,4.65.51,6.25,1.53,4.68,5-3.35,14,7.18,9.31-2.09-3-5.21.4-7.39,1.36-11.9-3.06-6.61-1.65-5.14,1-9.59,1.86-1.1,2-2.25.51-5-2.37-4.16-5.25-4.71-5.25-1-5,4.29-16.1-6-22.7-5.2-9.9.62-6.46-5.49.68-5.38,0-1.68-5.93-5.37-8.81-5.42-5.82-1.84-4.68-13.37.34-13.52,9.69-10.68-.2-20.37-.34-30.51.59-4.18-7.59-8-14.58-7.75Zm-2394.38,13c-4.64.08-8.75,1.52-9.19,5.08,2.12,7.18,29.28,4.74,21.6-2-2.59-1.89-7.77-3.17-12.41-3.08Zm-142.29.58c-7-.14-12.08,1.9-4.75,7.07,10.51,8.73,10.91,2.29,19.06,2.21,6.88-5.33-5.31-9.1-14.31-9.28Zm2593.55,85.34c-3.43-.19-6.35.8-6.38,3.22,15.25,29.54-1.06,19.6,18.12,39.15,2.81,11.48-1,10.31-8,6.22-1.45,5.78-4.45,17.77-10.16,11.41-4.67-4.69-9.23-2-11.86,2.85-8.79,6.08-13.32,8.59-12.2,19,8.64-.49,13.47-2.83,14.74-4.63,6.19.47,5.76-7,9.15-5.16,6.32,7,1,17.45,7.79,23,7.28,3,16.69,14.32,17.11,8.91,3.8-9.94-2.9-20,1-21,4.39.71,3.28,5.47,5.59,8.62,9.8,2.39,1.46-38.78-2.88-43.68-1,.57-1.18-1.64-.33-5.36-8.76-12.47-10.62-10.34-11.19-32.93,2.34-5.73-4.82-9.33-10.55-9.66Zm-35.67,10.5c-.51,3.81,2,9.66,1.69,14.36,17.66,10.8,2.33,11.23,7.63,20.36,1.89,3,5.37,3.43,7.11,5.9,3.25-9.67,11.51-4.35,18.63-6.89,2.12-12.66-5.53-23.12-15.75-20.9-5.19-1.58.09-8.36-5.08-8.42-5.35-.24-9.26-3.54-14.23-4.41Zm-28.29,6.56c-6.31,3.31-4.65,10.93-8.81,16.8-.72,11-12.81,13-18.12,22.88-2.5,2.74-.94,11.21,1.69,6.68,8-5.89,18.52-28,27.61-30.19,4.58-.88,5.25-4.24,1-5.32-5-3.38-2.63-7.31-.36-9.14a7.64,7.64,0,0,1-3-1.71Zm3,1.72c.81.08.36-.87.36-.3C3349.07,1258.66,3349,1258.78,3348.83,1258.88Zm-511.43,21.86c-5.81,8.08-.81,8.54-4.91,11.17,4.86,7.3,1.43,18.47,2.71,26.25,2.16,11.87,3.8,24.45,16.77,18.1,8.81-4.39,11-7.24,11-14.41,0-6.86-6.78-22.94-11.18-26.58-7-6.5-7.2-13.64-14.4-14.53Zm482.34,37.76c-3.14.19-6.7,6.74-11.6,12.29-11.43,19.89-22.43,23-36.93,40.41-25,4.8-33.58,36.2-45.06,24.58-1.35-3.74-6.27-.75-9.48,5.89-2.88,5.61-2.71,11.74,0,26.27,11.25,24.18,9.08,6.61,13,32.84,38.53,4.61,12.49,21.29,56.75,20,.12-.1,23.4-.42,23.54-.79,3.47-13,1.62-29.78,9.83-37.67,16.47-8.74,1.6-30.13,18-29.37,12.07-2.46-25.88-44.79-1.52-51.14,14-17.91-10-24.95-9.49-28.8-2.39-11-4.59-14.69-7-14.54Zm-280.93,22.78c-2.33.12-3.42,2.09-2.2,7.83,12.87,21,30.8,33.12,46.25,51.94-.85,3.5,5.75,20.56,8.46,21.47,4.75,1.61,17.28,24,18.3,32.41,7.34,15.61,21.24,29.8,32.69,41.1,14.91,14.63,15.24,14.83,20.5,13,21.17-2.86.86,11.93.67,13,3.2,5.11,15.18,1,15.42,8.32,12.63,9.65,36.6,5.38,48.45,11,5.81,4.61,36.58,4.66,38.79,6.63,10.36,1.5,27.33,3.23,28.79,3,7,3.51,14.17,6.37,21.52,6.32,17.5-11,51.73-1.28,68.26-5.42,8.7-5.53,28.93-1,35.23-6.22,2.54-2.59-1.86-3.11-17.44-2.15-18.44,4.35-47.39.81-56.58,3.63-.05-5.52-10.93-1.29-14.91-4.68-21.83,10.28-44.89-2.66-59.79-6.85-24.2-3.07,8.49-7.26,8.13-9.94-.51-1.08-5.42-1.6-12.7-1.36-40-10.49-31.49.21-39.13-.59-16.62,5.14-25.79-15.4-40.65-13.1-19.27,7.67-12.12-12.86-11.36-23.21.85-17.19,2-20.59,6.1-18.42,19.69,2.61-.54-9.57-2.54-19-12.35-4.38-12.86.9-6.1,7.16-8.88,3.74-19.32-15.79-26.25-20.9-6.07-5,6.14-12.22.17-17.73-1.11-9.27-9.35-6.87-14.57-14.57-3.11-.15-12.36-10.45-12.71-10.52-15.34-4.76-28.07-17.21-37.77-26.74-8.92-7-11.29-19.31-23.88-19.37-5.82.25-14.72-6.23-19.15-6Zm385.38,57.17a1.12,1.12,0,0,0-.36,0c-15.59,11.77-23.37,17.94-45.91,8.1-7.5-7-8.92,2.75-13.55,4.16-14.25,2.47-12.74,50.08-22.19,51.41-5.35,18.32,7.73,10,8.3,20.06,1,8-3,15.53-2.37,23.25,5.95,4.6,13.82-.2,14.06-5.84.34-26.32,1.35-34.14,4.4-35.09,4.58-1.44,5.59.45,3.22,6.41,16.07,22,12.72,28,18.47,34.31,8.76,6,10.73-10.61,10.84-17.27-4.56-5-20-34.06-17.62-36.93,4-3.39,21.84-13,21.86-14.16,0-4.53-4.24-6-9.49-3.31-12.24,4.45-28.82,23.3-33.88-7.36,1.69-8.54,3.22-9,24.73-7.53,16.41-.15,48.28,2,41.33-17.8-.59-1.5-1.05-2.36-1.84-2.43Zm96.87,30c-12.25,11.25-24.55,5.88-27.95,7.73,4.53,9.23,27.95,22,34.39,21.54,14.81,10.69-15,6.2-15.76,8-1.78,4.91,25.8,26.89,20.84,18.59-3.38-6.31,5.49-3.65,7.11-2.9A53.6,53.6,0,0,1,3549,1487a17.93,17.93,0,0,0,8.13,3.15c59.07,11.61,50.5,33.14,24.06,55.84,0,2.46,15.24,2.36,17.1-.1,19.1-8.34,17.19,13.62,34.73,13.52,24,.23,11.71,0,15.58,8.84,3.84-7.71,17.82-37.79,26.43-30.68,6.28,2.85,19.56,7.17,19.65,15.32,9.29,28.33,52.31,23.35,53.86,22.37-18-10.57-25.4-27.27-37.27-39.16-17.26-18.64,4.9-11.22,5.43-16.41-2.08-8.51-9.82-8.19-14.91-12.53-15.33-4.94-5.14-20.2-9.66-16.32-6.81-13.39-72.45-30.36-90.62-39.9-18.37-13.32-18.37,4.34-27.78,4.49-8.77.34-9.42,16.56-19,16.84-3,.75-18.63-14.29-10.67-18.53,3.92-13.23-11.71-22.77-23-25.26ZM3641.94,1580c-11.1,4-20,42.66-21,52.35-1.13,8.86-10.16,48.23-23.88,48.68-23.5-18.33-38.91-26-54.55-40.88,17.59-16.58,13.44-16.19,21.18-29.79-22.83-26.51-51.47-15.8-74-8.37-13.92,7.73-23.48,37.25-29.81,37.64-26.86-17.09-40.7-16.11-50.81,2.31-37.44,15.47-24.89,15.85-57.09,61.63-21.39,19.32-79,15.9-94.52,42.87-7.15-11.2-9.27,13.07-15.92,23.48-8.05,55.47-10.28,3.24-5.09,58.26,2.9,17.52,5.72,84.33-11.18,85.25-21.84,14.46,32.65,29.85,34.05,18.52,21.52-12.43,44-13.18,67.42-12,23.29-24.6,62.53-32.11,93.17-34.47,19.14-8.78,48.47,25.82,45.56,40.4-5.56,11.39,35.56,9.13,41.16,23.07,1.79,10.36-8.78,25.92,13.72,34.69,19.48,8.07,39.73-3.88,47.26,10.27,11.77-11,59.78-16.12,61-29.47,16.06-20.58,35.95-51.48,58.11-63.6,6-4.77,21.22-20.9,21.51-26.53,13.84-36.84,31.09-65.07,32-88.24-.17-2.39-.34-2.54-1-.64-7,11.88-24.26-20.12-23.21-28-20.33-15.06-5.82-47.41-34.22-51.74-19.12-2.64-4.73-27.85-11.69-38.11-6.2-29.05-19.27-39.76-19.14-42.14-3.94-29.89-1.3-23-7.62-44.9a2.12,2.12,0,0,0-1.35-.57ZM2439.5,1598.41a.28.28,0,0,0-.25,0c-7.84,19.3-21.84,31.22-26.93,41.09-7,7.69-25.84,19.55-35.07,19.63-6.2,1.82-3.82,8.77-7.11,14-6.82,27.83,9.62,34.35-9.15,60.2-7.53,7.14-5.66,59.73,9.32,60.47,8.44,6.14,16.23-1.28,23.54-1.68,13.76-3,18.47-34,23.72-45.67,5.5-21.28,17.48-39.8,21-61.53,1.71-33.67,31-37.11,1.19-86.36a.69.69,0,0,0-.25-.22Zm1486.93,326.83c-1.69,0-3.22.84-3.22,1.85,2.49,7.32.8,40.25-2,45.8-7.9,15.22-17.64,16.54-28.8,25.26,6.8,4.68,17.88,17.47,1.69,19.71-10.29,2.94-9.86-16.27-36.92,4-15.61,14.68-38.67,27.61-53.36,33.85a330.09,330.09,0,0,0-60.47,31.66c-6.61,4-6.44,9.6.33,9.6,13.85,3.1,5.87,12.78,33.55.17,12.59-5.58,22.9-14.69,30.65-21.89,7.29-6.57,15.08-10.27,25.58-11.79,10.5-10.93,31.44-20.26,44.21-33.68,13.72-6.49,12.34,5.59,29.14-7.74,9.68-3.26,27.5-31.79,36.76-27,9.89-2.65,36-32.83,11.85-21-9.75,7.57-17.75-4.41-12.87-10.94,7.1-14.7-13.29.85-9.31-7.24,6.23-11.13,2.87-21.87-6.78-30.65Zm-386.77,86.47c-1.32.36-4.83,5.54-5,5.81-3.88,7.61-14.76,37.1-5.26,41.09,19.17,3.67,37.44-22.07,44.22-32.5,5.08-8.25,3-10.11-8.3-6.9-7.82,3.24-25.38,2.7-25.24-5.9.25-1.31.06-1.73-.39-1.6ZM1272.45,2326.85c-29,5.57-46.65,15.77-55.57,12.63-2.83,12.37-8.88-1.06-14,6.57-1.71,9,14,3.74-2.12,20.38-14.36,19.45-6.77,5.87-18.21,7.07-8,2.14-8.58,14.74-1.17,14.82,20-1,15.35,16.56,15.25,23.57-10.2-4.56-20.46-15.86-31.76-9.93,4.6,18.33-23.59,2.8-29.1,12.29,7,8.73,7.8,6.1,3,13,54.52,5.83,2.1,10.81,30.27,14.15,28.45.28,12.74,14.28,13.51,12.29-2.44-8.77-54.45-12.12-54.63-9.1-12.74,22.25-51.92,5.19-67.76,4.38-8.38,2-23.07-8.09-29.91-3.2-8.43,2.32-18.86-.22-26-.33-25.22-1.39-42.26-8.27-60-8.42-13.33-1-24.53,1.29-36.47,5.72l6.25,5.22c11.28,9.37,16,9.47,28.79,17.85,6.22,6,26.24,10-.74,7.58-15.36,9.68-70.44-27.73-79-18.52,18.28,6.87,28.21,12,16.41,12.79-55.9,4.7-110.33-13.14-168.5-14.31,2,19.77-29.95,13.1-58.54,17-6.78,2.64-21,2.2-20,5.22-11.63,11.46-29.72-3-49.07,6.4-21.34,16.32-14.41,16.37-45.54,15-24.76,6.21-28.32,4.74-72.77,19,46.62,23.23,120.36,49.84,203.86,77.46l22.87,6.9H1933.36l1241.64.17c78.66-20.91,157-51.69,228.67-80.83,9.32-3.88,32.36-9.77-13.55-10.27-25.61,4.91-88.44-17.67-108.75-10.28-20.1-3.83-49.48,8.83-53.86,3.71-1.7-2.86,7.79-10.44,20.49-16.67,33.83-4.95,66.25-28.13,97.23-28.12,9.4.09,51.66-18.88,55.06-23.08,2.27-4.13-29.38-13.24-36.42-13.47-15.58-1.18-25.29-3.87-35.57-12.63-24-3.4-25.91-10.48-27.28-11.79-11.12-2.23-31.83-3-45.22-2.35-26.61-19.32-62.53-23.94-92-25.6-19.83-1.34,7.31-17.58-5.92-17.85-2.54,0-10,6.74-12.2,11.11-12.29,9.4-31.16.91-47.77,5.39-51.33.57-52.46.24-98.41,6.91-20.5,2.17-41.87.4-53.7-10.45-29.58,8.84-73.77.5-98.93.51-29.9-2.94-30.34-15-38.79-22.9-17.92,4.31-33.32,13.69-53.69,28.29-12.58,1.81-55.69,6.93-56.58.17-8.06-15.86-57.68,3.26-74.53,10.94-26.17,12.72-55.17,19.39-81,28.63-13.4,3.08-40.09-16.8-38.62-20.38-24.76-5.88-69.94-2.85-102.82-9.93-23.51-4.07-9.9-17.4-42.35-16-55.73,13.36-89.75,29.65-141.1,36.54-20.85,6.53-25.3,9.39-47.77,0-12.71-1.22-27.42-.35-40,3.54-34,13.35-87.52,17.33-117.22,9.77-36.21-12.81-86.23,1.64-103.5,2.18-5.16,3.15-75.91-3.16-77.41-2-3.22,3.2-37.27,6.91-67.76,7.41-23.51,4.25-38.7,12.65-55.72,22.06-24.39,11.13-26.32-4.09-38.46,15.16-11.6,12-20.93,6.3-36.08,11.79,7.69,8.51,4.52,9.65-15.75,13.47-17,6.6-34.46,11.8-51.66,20-6.95,3.87-8.81,4.21-24.23,3.37-25.07-5.94-50.25,1.79-73.92-.23,2.48-1.73-23-7-36.86-8.86-28.33-4.33-53.42-11.43-82.16-16.17-29-4.72-49.46-11.79-43.87-15.49,1.29-2.82,3.28-17.12,2.2-17.18-12.1-12.1-41.63-24.36-42.18-45,.25-5.42,7.78-3.55,7.05-8.09-9.54-10.39-12.09-9.74-20.32-21.21-8.56-18.26,17.16-23.12,20.74-29.48-12.23-19.85,40.63-7.25-.11-18.35Z"/>
</g>
</svg>
